<?xml version="1.0" encoding="UTF-8"?>
<svg id="Layer_1" xmlns="http://www.w3.org/2000/svg" xmlns:xlink="http://www.w3.org/1999/xlink" version="1.1" viewBox="0 0 300 420">
  <!-- Generator: Adobe Illustrator 29.8.4, SVG Export Plug-In . SVG Version: 2.1.1 Build 6)  -->
  <defs>
    <style>
      .st0 {
        fill: none;
      }

      .st1 {
        fill: #ce2029;
      }

      .st2 {
        clip-path: url(#clippath-11);
      }

      .st3 {
        clip-path: url(#clippath-10);
      }

      .st4 {
        clip-path: url(#clippath-1);
      }

      .st5 {
        clip-path: url(#clippath-3);
      }

      .st6 {
        clip-path: url(#clippath-4);
      }

      .st7 {
        clip-path: url(#clippath-2);
      }

      .st8 {
        clip-path: url(#clippath-7);
      }

      .st9 {
        clip-path: url(#clippath-6);
      }

      .st10 {
        clip-path: url(#clippath-9);
      }

      .st11 {
        clip-path: url(#clippath-8);
      }

      .st12 {
        clip-path: url(#clippath-5);
      }

      .st13 {
        fill: #fbfffe;
      }

      .st14 {
        clip-path: url(#clippath);
      }
    </style>
    <symbol id="Diamonds" viewBox="0 0 19.17 29.64">
      <path class="st1" d="M19.16,14.82c-2.24,4.96-6.37,11.35-9.58,14.82-3.2-3.47-7.33-9.87-9.58-14.82C2.25,9.87,6.38,3.47,9.59,0c3.2,3.47,7.33,9.87,9.58,14.82h-.01Z"/>
    </symbol>
    <symbol id="Diamonds_Light_" viewBox="0 0 19.17 29.64">
      <path class="st13" d="M19.16,14.82c-2.24,4.96-6.37,11.35-9.58,14.82-3.2-3.47-7.33-9.87-9.58-14.82C2.25,9.87,6.38,3.47,9.59,0c3.2,3.47,7.33,9.87,9.58,14.82h-.01Z"/>
    </symbol>
    <clipPath id="clippath">
      <rect class="st0" x="206.92" y="370.25" width="19.15" height="29.65"/>
    </clipPath>
    <clipPath id="clippath-1">
      <rect class="st0" x="38.99" y="103.96" width="16.09" height="24.91"/>
    </clipPath>
    <clipPath id="clippath-2">
      <rect class="st0" x="73.14" y="103.96" width="16.09" height="24.91"/>
    </clipPath>
    <clipPath id="clippath-3">
      <rect class="st0" x="38.99" y="141.15" width="16.09" height="24.91"/>
    </clipPath>
    <clipPath id="clippath-4">
      <rect class="st0" x="38.99" y="178.33" width="16.09" height="24.91"/>
    </clipPath>
    <clipPath id="clippath-5">
      <rect class="st0" x="38.99" y="215.51" width="16.09" height="24.91"/>
    </clipPath>
    <clipPath id="clippath-6">
      <rect class="st0" x="38.99" y="252.7" width="16.09" height="24.91"/>
    </clipPath>
    <clipPath id="clippath-7">
      <rect class="st0" x="73.14" y="141.15" width="16.09" height="24.91"/>
    </clipPath>
    <clipPath id="clippath-8">
      <rect class="st0" x="73.14" y="178.33" width="16.09" height="24.91"/>
    </clipPath>
    <clipPath id="clippath-9">
      <rect class="st0" x="73.14" y="215.51" width="16.09" height="24.91"/>
    </clipPath>
    <clipPath id="clippath-10">
      <rect class="st0" x="73.14" y="252.7" width="16.09" height="24.91"/>
    </clipPath>
    <clipPath id="clippath-11">
      <rect class="st0" x="73.93" y="20.15" width="19.15" height="29.65"/>
    </clipPath>
  </defs>
  <rect class="st13" width="300" height="420"/>
  <path class="st1" d="M129.71,322.59l65.6-112.96-64.96-111.04h48l44.48,80.96h5.76l44.48-80.96h48l-64.96,111.04,65.6,112.96h-48l-45.12-82.88h-5.76l-45.12,82.88h-48Z"/>
  <path class="st1" d="M0,320h300v100H0v-100h0Z"/>
  <g>
    <path class="st13" d="M26.68,400.28c-1.64,0-2.95-.48-3.93-1.45s-1.47-2.38-1.47-4.25v-3.16c0-1.87.49-3.28,1.47-4.25s2.29-1.45,3.93-1.45,2.87.46,3.73,1.37,1.29,2.16,1.29,3.73v.1h-1.28v-.14c0-1.15-.3-2.08-.91-2.81s-1.55-1.09-2.83-1.09-2.3.39-3.03,1.18c-.73.79-1.09,1.89-1.09,3.32v3.24c0,1.43.36,2.53,1.09,3.32s1.74,1.18,3.03,1.18,2.22-.36,2.83-1.09.91-1.66.91-2.81v-.3h1.28v.26c0,1.57-.43,2.82-1.29,3.73s-2.1,1.37-3.73,1.37Z"/>
    <path class="st13" d="M37.56,400.28c-.68,0-1.3-.12-1.85-.35s-.99-.58-1.31-1.03-.48-1-.48-1.64.16-1.19.48-1.62.75-.75,1.3-.96,1.15-.32,1.82-.32h3.56v-.78c0-.79-.23-1.4-.68-1.84s-1.11-.66-1.98-.66-1.53.21-2.03.63-.84.98-1.01,1.69l-1.16-.34c.16-.57.41-1.09.76-1.55s.81-.83,1.38-1.1c.57-.27,1.26-.41,2.06-.41,1.23,0,2.18.32,2.85.96s1.01,1.53,1.01,2.68v4.72c0,.4.19.6.56.6h.94v1.04h-1.28c-.41,0-.74-.12-.98-.37-.24-.25-.36-.58-.36-1.01v-.14h-.2c-.17.29-.4.58-.67.86-.27.28-.63.51-1.07.68-.44.17-.99.26-1.66.26h0ZM37.64,399.2c1.03,0,1.86-.31,2.49-.93s.95-1.5.95-2.63v-.24h-3.54c-.69,0-1.27.15-1.73.45-.46.3-.69.76-.69,1.39s.24,1.11.71,1.45c.47.34,1.08.51,1.81.51h0Z"/>
    <path class="st13" d="M46.06,400v-9.72h1.16v1.22h.24c.19-.44.46-.76.83-.96.37-.2.88-.3,1.53-.3h1.14v1.12h-1.28c-.73,0-1.32.21-1.76.62s-.66,1.06-.66,1.94v6.08h-1.2Z"/>
    <path class="st13" d="M57.28,400.28c-.87,0-1.65-.2-2.36-.61-.71-.41-1.27-.99-1.69-1.74s-.63-1.64-.63-2.67v-.24c0-1.03.21-1.92.62-2.67s.98-1.33,1.69-1.74,1.5-.61,2.37-.61c.72,0,1.33.1,1.82.29.49.19.9.44,1.21.74s.56.62.73.95h.24v-5.98h1.2v14h-1.16v-1.78h-.24c-.28.53-.72,1.01-1.31,1.43-.59.42-1.42.63-2.49.63h0ZM57.56,399.2c1.11,0,2-.35,2.69-1.06s1.03-1.68,1.03-2.92v-.16c0-1.24-.34-2.21-1.03-2.92-.69-.71-1.58-1.06-2.69-1.06s-1.99.35-2.68,1.06-1.04,1.68-1.04,2.92v.16c0,1.24.35,2.21,1.04,2.92.69.71,1.59,1.06,2.68,1.06Z"/>
    <path class="st13" d="M71.88,400.28c-1.73,0-3.11-.48-4.12-1.45s-1.52-2.35-1.52-4.15v-3.36c0-1.8.51-3.18,1.52-4.15,1.01-.97,2.39-1.45,4.12-1.45s3.05.47,3.99,1.41c.94.94,1.41,2.23,1.41,3.87v.12h-2.6v-.2c0-.83-.23-1.51-.69-2.04s-1.16-.8-2.11-.8-1.67.29-2.2.86-.8,1.35-.8,2.34v3.44c0,.97.27,1.75.8,2.33s1.27.87,2.2.87,1.65-.27,2.11-.81.69-1.22.69-2.03v-.36h2.6v.28c0,1.64-.47,2.93-1.41,3.87s-2.27,1.41-3.99,1.41h0Z"/>
    <path class="st13" d="M84.24,400.28c-.99,0-1.87-.2-2.66-.6s-1.41-.98-1.86-1.74c-.45-.76-.68-1.67-.68-2.74v-.32c0-1.07.23-1.98.68-2.74.45-.76,1.07-1.34,1.86-1.74s1.67-.6,2.66-.6,1.87.2,2.66.6,1.41.98,1.86,1.74c.45.76.68,1.67.68,2.74v.32c0,1.07-.23,1.98-.68,2.74-.45.76-1.07,1.34-1.86,1.74s-1.67.6-2.66.6ZM84.24,398.04c.77,0,1.41-.25,1.92-.75.51-.5.76-1.22.76-2.15v-.2c0-.93-.25-1.65-.75-2.15s-1.14-.75-1.93-.75-1.41.25-1.92.75c-.51.5-.76,1.22-.76,2.15v.2c0,.93.25,1.65.76,2.15s1.15.75,1.92.75Z"/>
    <path class="st13" d="M95.54,400.16c-.77,0-1.45-.18-2.03-.53s-1.03-.84-1.35-1.47-.48-1.35-.48-2.16v-5.92h2.52v5.72c0,.75.18,1.31.55,1.68s.89.56,1.57.56c.77,0,1.37-.26,1.8-.77.43-.51.64-1.23.64-2.15v-5.04h2.52v9.92h-2.48v-1.3h-.36c-.16.33-.46.66-.9.98s-1.11.48-2,.48h0Z"/>
    <path class="st13" d="M104.08,400v-9.92h2.48v1.3h.36c.16-.35.46-.68.9-.99s1.11-.47,2-.47c.77,0,1.45.18,2.03.53s1.03.84,1.35,1.46.48,1.34.48,2.17v5.92h-2.52v-5.72c0-.75-.18-1.31-.55-1.68s-.89-.56-1.57-.56c-.77,0-1.37.26-1.8.77-.43.51-.64,1.23-.64,2.15v5.04h-2.52Z"/>
    <path class="st13" d="M119.92,400c-.65,0-1.18-.2-1.59-.61-.41-.41-.61-.95-.61-1.63v-5.6h-2.48v-2.08h2.48v-3.08h2.52v3.08h2.72v2.08h-2.72v5.16c0,.4.19.6.56.6h1.92v2.08s-2.8,0-2.8,0Z"/>
    <path class="st13" d="M129.4,400.28c-.99,0-1.86-.21-2.61-.63s-1.34-1.01-1.76-1.78-.63-1.67-.63-2.71v-.24c0-1.04.21-1.94.62-2.71s.99-1.36,1.74-1.78,1.61-.63,2.6-.63,1.82.22,2.54.65,1.28,1.03,1.68,1.8.6,1.66.6,2.67v.86h-7.22c.03.68.28,1.23.76,1.66s1.07.64,1.76.64,1.23-.15,1.56-.46.59-.65.76-1.02l2.06,1.08c-.19.35-.46.72-.81,1.13-.35.41-.82.75-1.41,1.04s-1.33.43-2.24.43h0ZM126.98,393.9h4.64c-.05-.57-.28-1.03-.69-1.38s-.94-.52-1.59-.52-1.22.17-1.62.52c-.4.35-.65.81-.74,1.38Z"/>
    <path class="st13" d="M136.42,400v-9.92h2.48v1.12h.36c.15-.4.39-.69.73-.88s.74-.28,1.19-.28h1.2v2.24h-1.24c-.64,0-1.17.17-1.58.51s-.62.86-.62,1.57v5.64h-2.52,0Z"/>
    <path class="st13" d="M148.22,400.28c-1.29,0-2.35-.28-3.18-.84-.83-.56-1.33-1.36-1.5-2.4l2.32-.6c.09.47.25.83.47,1.1.22.27.49.46.82.57.33.11.68.17,1.07.17.59,0,1.02-.1,1.3-.31s.42-.46.42-.77-.13-.54-.4-.71c-.27-.17-.69-.3-1.28-.41l-.56-.1c-.69-.13-1.33-.32-1.9-.55-.57-.23-1.03-.56-1.38-.97s-.52-.95-.52-1.6c0-.99.36-1.74,1.08-2.27s1.67-.79,2.84-.79,2.03.25,2.76.74,1.21,1.14,1.44,1.94l-2.34.72c-.11-.51-.32-.87-.65-1.08-.33-.21-.73-.32-1.21-.32s-.85.08-1.1.25-.38.4-.38.69c0,.32.13.56.4.71.27.15.63.27,1.08.35l.56.1c.75.13,1.42.31,2.03.53s1.09.53,1.44.94.53.96.53,1.65c0,1.04-.38,1.84-1.13,2.41s-1.76.85-3.03.85h0Z"/>
  </g>
  <g>
    <path class="st1" d="M31.09,49.89v-26.06h-.77l-4.04,9.55h-5.76l6.15-13.59h9.93v30.1s-5.51,0-5.51,0Z"/>
    <path class="st1" d="M50.14,50.5c-3.56,0-6.41-.98-8.56-2.95-2.15-1.96-3.22-4.94-3.22-8.92v-7.57c0-3.87,1.08-6.82,3.22-8.84,2.15-2.02,5-3.03,8.56-3.03s6.44,1.01,8.58,3.03c2.13,2.02,3.2,4.97,3.2,8.84v7.57c0,3.98-1.07,6.96-3.2,8.92-2.14,1.96-5,2.95-8.58,2.95ZM50.14,45.59c2.15,0,3.73-.59,4.75-1.76s1.53-2.85,1.53-5.03v-8c0-2.21-.57-3.88-1.7-5.01s-2.66-1.7-4.58-1.7-3.52.59-4.62,1.76c-1.1,1.18-1.66,2.82-1.66,4.95v8c0,2.26.52,3.96,1.57,5.1,1.05,1.13,2.62,1.7,4.71,1.7h0Z"/>
  </g>
  <g>
    <path class="st13" d="M268.91,370.11v26.06h.77l4.04-9.55h5.76l-6.15,13.59h-9.93v-30.1h5.51,0Z"/>
    <path class="st13" d="M249.86,369.5c3.55,0,6.41.98,8.56,2.95,2.15,1.96,3.23,4.94,3.23,8.92v7.57c0,3.87-1.08,6.82-3.23,8.84-2.15,2.02-5,3.03-8.56,3.03s-6.44-1.01-8.58-3.03c-2.13-2.02-3.2-4.97-3.2-8.84v-7.57c0-3.98,1.07-6.96,3.2-8.92,2.14-1.96,5-2.95,8.58-2.95h0ZM249.86,374.41c-2.15,0-3.73.59-4.75,1.76s-1.53,2.85-1.53,5.03v8c0,2.21.57,3.88,1.7,5.01,1.13,1.13,2.66,1.7,4.58,1.7s3.52-.59,4.62-1.76c1.1-1.18,1.66-2.82,1.66-4.95v-8c0-2.26-.52-3.96-1.57-5.1s-2.62-1.7-4.71-1.7h0Z"/>
  </g>
  <g class="st14">
    <use width="19.17" height="29.64" transform="translate(206.91 370.25)" xlink:href="#Diamonds_Light_"/>
  </g>
  <g class="st4">
    <use width="19.17" height="29.64" transform="translate(38.98 103.96) scale(.84)" xlink:href="#Diamonds"/>
  </g>
  <g class="st7">
    <use width="19.17" height="29.64" transform="translate(73.13 103.96) scale(.84)" xlink:href="#Diamonds"/>
  </g>
  <g class="st5">
    <use width="19.17" height="29.64" transform="translate(38.98 141.15) scale(.84)" xlink:href="#Diamonds"/>
  </g>
  <g class="st6">
    <use width="19.17" height="29.64" transform="translate(38.98 178.33) scale(.84)" xlink:href="#Diamonds"/>
  </g>
  <g class="st12">
    <use width="19.17" height="29.64" transform="translate(38.98 215.51) scale(.84)" xlink:href="#Diamonds"/>
  </g>
  <g class="st9">
    <use width="19.17" height="29.64" transform="translate(38.98 252.7) scale(.84)" xlink:href="#Diamonds"/>
  </g>
  <g class="st8">
    <use width="19.17" height="29.64" transform="translate(73.13 141.15) scale(.84)" xlink:href="#Diamonds"/>
  </g>
  <g class="st11">
    <use width="19.17" height="29.64" transform="translate(73.13 178.33) scale(.84)" xlink:href="#Diamonds"/>
  </g>
  <g class="st10">
    <use width="19.17" height="29.64" transform="translate(73.13 215.51) scale(.84)" xlink:href="#Diamonds"/>
  </g>
  <g class="st3">
    <use width="19.17" height="29.64" transform="translate(73.13 252.7) scale(.84)" xlink:href="#Diamonds"/>
  </g>
  <g class="st2">
    <use width="19.17" height="29.64" transform="translate(73.92 20.15)" xlink:href="#Diamonds"/>
  </g>
</svg>