<?xml version="1.0" encoding="UTF-8"?>
<svg id="Layer_1" xmlns="http://www.w3.org/2000/svg" xmlns:xlink="http://www.w3.org/1999/xlink" version="1.1" viewBox="0 0 300 420">
  <!-- Generator: Adobe Illustrator 29.8.4, SVG Export Plug-In . SVG Version: 2.1.1 Build 6)  -->
  <defs>
    <style>
      .st0 {
        fill: none;
      }

      .st1 {
        fill: #ce2029;
      }

      .st2 {
        clip-path: url(#clippath-1);
      }

      .st3 {
        clip-path: url(#clippath-3);
      }

      .st4 {
        clip-path: url(#clippath-4);
      }

      .st5 {
        clip-path: url(#clippath-2);
      }

      .st6 {
        fill: #fbfffe;
      }

      .st7 {
        clip-path: url(#clippath);
      }
    </style>
    <symbol id="Diamonds" viewBox="0 0 19.17 29.64">
      <path class="st1" d="M19.16,14.82C16.92,9.86,12.79,3.47,9.58,0,6.38,3.47,2.25,9.87,0,14.82c2.25,4.95,6.38,11.35,9.59,14.82,3.2-3.47,7.33-9.87,9.58-14.82h-.01Z"/>
    </symbol>
    <symbol id="Diamonds_Light_" viewBox="0 0 19.17 29.64">
      <path class="st6" d="M19.16,14.82C16.92,9.86,12.79,3.47,9.58,0,6.38,3.47,2.25,9.87,0,14.82c2.25,4.95,6.38,11.35,9.59,14.82,3.2-3.47,7.33-9.87,9.58-14.82h-.01Z"/>
    </symbol>
    <clipPath id="clippath">
      <rect class="st0" x="224.42" y="370.25" width="19.15" height="29.65"/>
    </clipPath>
    <clipPath id="clippath-1">
      <rect class="st0" x="56.42" y="20.1" width="19.15" height="29.65"/>
    </clipPath>
    <clipPath id="clippath-2">
      <rect class="st0" x="41.32" y="111.83" width="28.72" height="44.47"/>
    </clipPath>
    <clipPath id="clippath-3">
      <rect class="st0" x="41.32" y="168.6" width="28.72" height="44.47"/>
    </clipPath>
    <clipPath id="clippath-4">
      <rect class="st0" x="41.32" y="225.37" width="28.72" height="44.47"/>
    </clipPath>
  </defs>
  <rect class="st6" width="300" height="420"/>
  <path class="st1" d="M221.72,327.07c-16.85,0-31.79-2.99-44.8-8.96-13.02-5.97-23.2-14.56-30.56-25.76s-11.04-24.48-11.04-39.84v-5.76h40.96v4.48c0,11.95,4.16,21.5,12.48,28.64,8.32,7.15,19.31,10.72,32.96,10.72s24.59-3.3,32.16-9.92c7.57-6.61,11.36-14.93,11.36-24.96v-3.2c0-6.83-1.71-12.37-5.12-16.64-3.42-4.27-8-7.41-13.76-9.44-5.76-2.02-12.27-3.04-19.52-3.04h-44.8v-44.8l72.32-38.4v-5.12h-113.28v-36.48h158.72v54.4l-67.52,35.84v5.12h11.84c10.02,0,19.78,2.03,29.28,6.08,9.49,4.06,17.33,10.3,23.52,18.72,6.19,8.43,9.28,19.36,9.28,32.8v3.84c0,14.51-3.52,27.15-10.56,37.92-7.04,10.78-16.91,19.1-29.6,24.96-12.7,5.87-27.47,8.8-44.32,8.8h0Z"/>
  <path class="st1" d="M0,320h300v100H0v-100h0Z"/>
  <path class="st1" d="M33.07,50.5c-2.26,0-4.27-.4-6.02-1.2s-3.12-1.96-4.11-3.46c-.99-1.5-1.48-3.29-1.48-5.35v-.77h5.5v.6c0,1.61.56,2.89,1.68,3.85s2.59,1.44,4.43,1.44,3.3-.44,4.32-1.33,1.53-2.01,1.53-3.35v-.43c0-.92-.23-1.66-.69-2.24-.46-.57-1.08-1-1.85-1.27-.77-.27-1.65-.41-2.62-.41h-6.02v-6.02l9.72-5.16v-.69h-15.22v-4.9h21.33v7.31l-9.07,4.82v.69h1.59c1.35,0,2.66.27,3.93.82s2.33,1.38,3.16,2.52c.83,1.13,1.25,2.6,1.25,4.41v.52c0,1.95-.47,3.65-1.42,5.1-.95,1.45-2.27,2.57-3.98,3.35-1.71.79-3.69,1.18-5.96,1.18v-.03Z"/>
  <path class="st6" d="M266.93,369.5c2.26,0,4.27.4,6.02,1.2,1.75.8,3.12,1.96,4.11,3.46s1.48,3.29,1.48,5.35v.77h-5.5v-.6c0-1.61-.56-2.89-1.68-3.85s-2.59-1.44-4.43-1.44-3.3.44-4.32,1.33c-1.02.89-1.53,2.01-1.53,3.35v.43c0,.92.23,1.66.69,2.24.46.57,1.07,1,1.85,1.27.77.27,1.65.41,2.62.41h6.02v6.02l-9.72,5.16v.69h15.22v4.9h-21.33v-7.31l9.07-4.82v-.69h-1.59c-1.35,0-2.66-.27-3.93-.82-1.27-.54-2.33-1.38-3.16-2.52s-1.25-2.6-1.25-4.41v-.52c0-1.95.47-3.65,1.42-5.1s2.27-2.57,3.98-3.35,3.69-1.18,5.96-1.18v.03Z"/>
  <g>
    <path class="st6" d="M26.68,400.28c-1.64,0-2.95-.48-3.93-1.45s-1.47-2.38-1.47-4.25v-3.16c0-1.87.49-3.28,1.47-4.25s2.29-1.45,3.93-1.45,2.87.46,3.73,1.37,1.29,2.16,1.29,3.73v.1h-1.28v-.14c0-1.15-.3-2.08-.91-2.81s-1.55-1.09-2.83-1.09-2.3.39-3.03,1.18c-.73.79-1.09,1.89-1.09,3.32v3.24c0,1.43.36,2.53,1.09,3.32s1.74,1.18,3.03,1.18,2.22-.36,2.83-1.09.91-1.66.91-2.81v-.3h1.28v.26c0,1.57-.43,2.82-1.29,3.73s-2.1,1.37-3.73,1.37Z"/>
    <path class="st6" d="M37.56,400.28c-.68,0-1.3-.12-1.85-.35s-.99-.58-1.31-1.03-.48-1-.48-1.64.16-1.19.48-1.62.75-.75,1.3-.96,1.15-.32,1.82-.32h3.56v-.78c0-.79-.23-1.4-.68-1.84s-1.11-.66-1.98-.66-1.53.21-2.03.63-.84.98-1.01,1.69l-1.16-.34c.16-.57.41-1.09.76-1.55s.81-.83,1.38-1.1,1.26-.41,2.06-.41c1.23,0,2.18.32,2.85.96.67.64,1.01,1.53,1.01,2.68v4.72c0,.4.19.6.56.6h.94v1.04h-1.28c-.41,0-.74-.12-.98-.37-.24-.25-.36-.58-.36-1.01v-.14h-.2c-.17.29-.4.58-.67.86-.27.28-.63.51-1.07.68-.44.17-.99.26-1.66.26h0ZM37.64,399.2c1.03,0,1.86-.31,2.49-.93s.95-1.5.95-2.63v-.24h-3.54c-.69,0-1.27.15-1.73.45-.46.3-.69.76-.69,1.39s.24,1.11.71,1.45c.47.34,1.08.51,1.81.51h0Z"/>
    <path class="st6" d="M46.06,400v-9.72h1.16v1.22h.24c.19-.44.46-.76.83-.96.37-.2.88-.3,1.53-.3h1.14v1.12h-1.28c-.73,0-1.32.21-1.76.62s-.66,1.06-.66,1.94v6.08h-1.2Z"/>
    <path class="st6" d="M57.28,400.28c-.87,0-1.65-.2-2.36-.61-.71-.41-1.27-.99-1.69-1.74s-.63-1.64-.63-2.67v-.24c0-1.03.21-1.92.62-2.67s.98-1.33,1.69-1.74,1.5-.61,2.37-.61c.72,0,1.33.1,1.82.29s.9.44,1.21.74c.31.3.56.62.73.95h.24v-5.98h1.2v14h-1.16v-1.78h-.24c-.28.53-.72,1.01-1.31,1.43-.59.42-1.42.63-2.49.63h0ZM57.56,399.2c1.11,0,2-.35,2.69-1.06s1.03-1.68,1.03-2.92v-.16c0-1.24-.34-2.21-1.03-2.92-.69-.71-1.58-1.06-2.69-1.06s-1.99.35-2.68,1.06-1.04,1.68-1.04,2.92v.16c0,1.24.35,2.21,1.04,2.92.69.71,1.59,1.06,2.68,1.06Z"/>
    <path class="st6" d="M71.88,400.28c-1.73,0-3.11-.48-4.12-1.45s-1.52-2.35-1.52-4.15v-3.36c0-1.8.51-3.18,1.52-4.15,1.01-.97,2.39-1.45,4.12-1.45s3.05.47,3.99,1.41c.94.94,1.41,2.23,1.41,3.87v.12h-2.6v-.2c0-.83-.23-1.51-.69-2.04s-1.16-.8-2.11-.8-1.67.29-2.2.86-.8,1.35-.8,2.34v3.44c0,.97.27,1.75.8,2.33s1.27.87,2.2.87,1.65-.27,2.11-.81.69-1.22.69-2.03v-.36h2.6v.28c0,1.64-.47,2.93-1.41,3.87s-2.27,1.41-3.99,1.41h0Z"/>
    <path class="st6" d="M84.24,400.28c-.99,0-1.87-.2-2.66-.6s-1.41-.98-1.86-1.74c-.45-.76-.68-1.67-.68-2.74v-.32c0-1.07.23-1.98.68-2.74.45-.76,1.07-1.34,1.86-1.74s1.67-.6,2.66-.6,1.87.2,2.66.6,1.41.98,1.86,1.74c.45.76.68,1.67.68,2.74v.32c0,1.07-.23,1.98-.68,2.74-.45.76-1.07,1.34-1.86,1.74s-1.67.6-2.66.6ZM84.24,398.04c.77,0,1.41-.25,1.92-.75.51-.5.76-1.22.76-2.15v-.2c0-.93-.25-1.65-.75-2.15s-1.14-.75-1.93-.75-1.41.25-1.92.75c-.51.5-.76,1.22-.76,2.15v.2c0,.93.25,1.65.76,2.15s1.15.75,1.92.75Z"/>
    <path class="st6" d="M95.54,400.16c-.77,0-1.45-.18-2.03-.53s-1.03-.84-1.35-1.47-.48-1.35-.48-2.16v-5.92h2.52v5.72c0,.75.18,1.31.55,1.68s.89.56,1.57.56c.77,0,1.37-.26,1.8-.77.43-.51.64-1.23.64-2.15v-5.04h2.52v9.92h-2.48v-1.3h-.36c-.16.33-.46.66-.9.98s-1.11.48-2,.48h0Z"/>
    <path class="st6" d="M104.08,400v-9.92h2.48v1.3h.36c.16-.35.46-.68.9-.99s1.11-.47,2-.47c.77,0,1.45.18,2.03.53s1.03.84,1.35,1.46.48,1.34.48,2.17v5.92h-2.52v-5.72c0-.75-.18-1.31-.55-1.68s-.89-.56-1.57-.56c-.77,0-1.37.26-1.8.77-.43.51-.64,1.23-.64,2.15v5.04h-2.52Z"/>
    <path class="st6" d="M119.92,400c-.65,0-1.18-.2-1.59-.61-.41-.41-.61-.95-.61-1.63v-5.6h-2.48v-2.08h2.48v-3.08h2.52v3.08h2.72v2.08h-2.72v5.16c0,.4.19.6.56.6h1.92v2.08s-2.8,0-2.8,0Z"/>
    <path class="st6" d="M129.4,400.28c-.99,0-1.86-.21-2.61-.63s-1.34-1.01-1.76-1.78c-.42-.77-.63-1.67-.63-2.71v-.24c0-1.04.21-1.94.62-2.71s.99-1.36,1.74-1.78,1.61-.63,2.6-.63,1.82.22,2.54.65c.72.43,1.28,1.03,1.68,1.8s.6,1.66.6,2.67v.86h-7.22c.03.68.28,1.23.76,1.66s1.07.64,1.76.64,1.23-.15,1.56-.46.59-.65.76-1.02l2.06,1.08c-.19.35-.46.72-.81,1.13-.35.41-.82.75-1.41,1.04s-1.33.43-2.24.43h0ZM126.98,393.9h4.64c-.05-.57-.28-1.03-.69-1.38s-.94-.52-1.59-.52-1.22.17-1.62.52c-.4.35-.65.81-.74,1.38Z"/>
    <path class="st6" d="M136.42,400v-9.92h2.48v1.12h.36c.15-.4.39-.69.73-.88s.74-.28,1.19-.28h1.2v2.24h-1.24c-.64,0-1.17.17-1.58.51s-.62.86-.62,1.57v5.64h-2.52,0Z"/>
    <path class="st6" d="M148.22,400.28c-1.29,0-2.35-.28-3.18-.84-.83-.56-1.33-1.36-1.5-2.4l2.32-.6c.09.47.25.83.47,1.1.22.27.49.46.82.57.33.11.68.17,1.07.17.59,0,1.02-.1,1.3-.31s.42-.46.42-.77-.13-.54-.4-.71-.69-.3-1.28-.41l-.56-.1c-.69-.13-1.33-.32-1.9-.55-.57-.23-1.03-.56-1.38-.97s-.52-.95-.52-1.6c0-.99.36-1.74,1.08-2.27s1.67-.79,2.84-.79,2.03.25,2.76.74,1.21,1.14,1.44,1.94l-2.34.72c-.11-.51-.32-.87-.65-1.08-.33-.21-.73-.32-1.21-.32s-.85.08-1.1.25-.38.4-.38.69c0,.32.13.56.4.71.27.15.63.27,1.08.35l.56.1c.75.13,1.42.31,2.03.53s1.09.53,1.44.94.53.96.53,1.65c0,1.04-.38,1.84-1.13,2.41s-1.76.85-3.03.85h0Z"/>
  </g>
  <g class="st7">
    <use width="19.17" height="29.64" transform="translate(224.41 399.89) scale(1 -1)" xlink:href="#Diamonds_Light_"/>
  </g>
  <g class="st2">
    <use width="19.17" height="29.64" transform="translate(56.41 49.74) scale(1 -1)" xlink:href="#Diamonds"/>
  </g>
  <g class="st5">
    <use width="19.17" height="29.64" transform="translate(41.3 156.29) scale(1.5 -1.5)" xlink:href="#Diamonds"/>
  </g>
  <g class="st3">
    <use width="19.17" height="29.64" transform="translate(41.3 213.06) scale(1.5 -1.5)" xlink:href="#Diamonds"/>
  </g>
  <g class="st4">
    <use width="19.17" height="29.64" transform="translate(41.3 269.83) scale(1.5 -1.5)" xlink:href="#Diamonds"/>
  </g>
</svg>