<?xml version="1.0" encoding="UTF-8"?>
<svg id="Layer_1" data-name="Layer 1" xmlns="http://www.w3.org/2000/svg" xmlns:xlink="http://www.w3.org/1999/xlink" viewBox="0 0 300 420">
  <defs>
    <style>
      .cls-1 {
        fill: #ce2029;
      }

      .cls-2 {
        fill: #fbfffe;
      }
    </style>
    <symbol id="Hearts" viewBox="0 0 27 29.65">
      <path class="cls-1" d="M27,7c0,.22-.01.45-.04.68-.03.33-.09.67-.18,1.02-1.72,7.55-13.28,20.95-13.28,20.95,0,0-11.18-12.96-13.19-20.57-.02-.06-.03-.11-.04-.17-.11-.43-.19-.84-.23-1.23-.03-.23-.04-.46-.04-.68C0,3.13,3.13,0,7,0c2.95,0,5.47,1.82,6.5,4.41,1.02-2.59,3.55-4.41,6.5-4.41,3.86,0,7,3.13,7,7Z"/>
    </symbol>
    <symbol id="Hearts_Light_" data-name="Hearts (Light)" viewBox="0 0 27 29.65">
      <path class="cls-2" d="M0,22.65c0-.22.01-.45.04-.68.03-.33.09-.67.18-1.02C1.94,13.4,13.5,0,13.5,0c0,0,11.18,12.96,13.19,20.57.02.06.03.11.04.17.11.43.19.84.23,1.23.03.23.04.46.04.68,0,3.87-3.13,7-7,7-2.95,0-5.47-1.82-6.5-4.41-1.02,2.59-3.55,4.41-6.5,4.41-3.86,0-7-3.13-7-7Z"/>
    </symbol>
  </defs>
  <rect class="cls-2" x="0" width="300" height="420" rx="20" ry="20"/>
  <path class="cls-1" d="M224.96,327.07c-17.5,0-32.59-3.1-45.28-9.28-12.7-6.19-22.46-14.93-29.28-26.24-6.83-11.3-10.24-24.42-10.24-39.36v-3.2h41.6v2.88c0,10.67,3.57,19.79,10.72,27.36,7.15,7.58,17.76,11.36,31.84,11.36s24.91-3.79,32.48-11.36c7.57-7.57,11.36-17.44,11.36-29.6v-3.2c0-11.95-3.79-21.44-11.36-28.48-7.57-7.04-17.01-10.56-28.32-10.56-6.19,0-11.31.86-15.36,2.56-4.06,1.71-7.36,3.84-9.92,6.4-2.56,2.56-4.7,5.12-6.4,7.68h-49.6v-125.44h152.96v37.12h-112v54.72h5.76c2.13-2.77,5.01-5.44,8.64-8,3.62-2.56,8.32-4.69,14.08-6.4,5.76-1.71,12.58-2.56,20.48-2.56,13.23,0,25.28,2.77,36.16,8.32,10.88,5.55,19.57,13.71,26.08,24.48,6.51,10.78,9.76,24.06,9.76,39.84v3.84c0,15.79-3.36,29.44-10.08,40.96-6.72,11.52-16.38,20.43-28.96,26.72-12.59,6.29-27.63,9.44-45.12,9.44Z"/>
  <path class="cls-1" d="M0,320h300v80c0,11.04-8.96,20-20,20H20C8.96,420,0,411.04,0,400v-80H0Z"/>
  <path class="cls-1" d="M33.03,50.5c-2.35,0-4.38-.42-6.08-1.25-1.71-.83-3.02-2.01-3.93-3.53-.92-1.52-1.38-3.28-1.38-5.29v-.43h5.59v.39c0,1.43.48,2.66,1.44,3.68.96,1.02,2.39,1.53,4.28,1.53s3.35-.51,4.36-1.53,1.53-2.34,1.53-3.98v-.43c0-1.6-.51-2.88-1.53-3.83-1.02-.95-2.29-1.42-3.81-1.42-.83,0-1.52.12-2.06.34-.54.23-.99.52-1.33.86-.34.34-.63.69-.86,1.03h-6.67v-16.86h20.55v4.99h-15.05v7.35h.77c.29-.37.67-.73,1.16-1.08.49-.34,1.12-.63,1.89-.86.77-.23,1.69-.34,2.75-.34,1.78,0,3.4.37,4.86,1.12,1.46.75,2.63,1.84,3.5,3.29.87,1.45,1.31,3.23,1.31,5.35v.52c0,2.12-.45,3.96-1.35,5.5-.9,1.55-2.2,2.75-3.89,3.59-1.69.84-3.71,1.27-6.06,1.27Z"/>
  <path class="cls-2" d="M266.97,369.5c2.35,0,4.38.42,6.08,1.25,1.71.83,3.02,2.01,3.93,3.53s1.38,3.28,1.38,5.29v.43h-5.59v-.39c0-1.43-.48-2.66-1.44-3.68-.96-1.02-2.39-1.53-4.28-1.53s-3.35.51-4.36,1.53c-1.02,1.02-1.53,2.34-1.53,3.98v.43c0,1.6.51,2.88,1.53,3.83,1.02.95,2.29,1.42,3.81,1.42.83,0,1.52-.12,2.06-.34.54-.23.99-.52,1.33-.86.34-.34.63-.69.86-1.03h6.67v16.86h-20.55v-4.99h15.05v-7.35h-.77c-.29.37-.67.73-1.16,1.08-.49.34-1.12.63-1.89.86-.77.23-1.69.34-2.75.34-1.78,0-3.4-.37-4.86-1.12-1.46-.75-2.63-1.84-3.5-3.29-.87-1.45-1.31-3.23-1.31-5.35v-.52c0-2.12.45-3.96,1.35-5.5.9-1.55,2.2-2.75,3.89-3.59,1.69-.84,3.71-1.27,6.06-1.27Z"/>
  <g>
    <path class="cls-2" d="M26.68,400.28c-1.64,0-2.95-.48-3.93-1.45s-1.47-2.38-1.47-4.25v-3.16c0-1.87.49-3.28,1.47-4.25s2.29-1.45,3.93-1.45,2.87.46,3.73,1.37c.86.91,1.29,2.16,1.29,3.73v.1h-1.28v-.14c0-1.15-.3-2.08-.91-2.81-.61-.73-1.55-1.09-2.83-1.09s-2.3.39-3.03,1.18c-.73.79-1.09,1.89-1.09,3.32v3.24c0,1.43.36,2.53,1.09,3.32.73.79,1.74,1.18,3.03,1.18s2.22-.36,2.83-1.09c.61-.73.91-1.66.91-2.81v-.3h1.28v.26c0,1.57-.43,2.82-1.29,3.73-.86.91-2.1,1.37-3.73,1.37Z"/>
    <path class="cls-2" d="M37.56,400.28c-.68,0-1.3-.12-1.85-.35-.55-.23-.99-.58-1.31-1.03-.32-.45-.48-1-.48-1.64s.16-1.19.48-1.62c.32-.43.75-.75,1.3-.96.55-.21,1.15-.32,1.82-.32h3.56v-.78c0-.79-.23-1.4-.68-1.84-.45-.44-1.11-.66-1.98-.66s-1.53.21-2.03.63-.84.98-1.01,1.69l-1.16-.34c.16-.57.41-1.09.76-1.55.35-.46.81-.83,1.38-1.1s1.26-.41,2.06-.41c1.23,0,2.18.32,2.85.96.67.64,1.01,1.53,1.01,2.68v4.72c0,.4.19.6.56.6h.94v1.04h-1.28c-.41,0-.74-.12-.98-.37-.24-.25-.36-.58-.36-1.01v-.14h-.2c-.17.29-.4.58-.67.86-.27.28-.63.51-1.07.68-.44.17-.99.26-1.66.26ZM37.64,399.2c1.03,0,1.86-.31,2.49-.93.63-.62.95-1.5.95-2.63v-.24h-3.54c-.69,0-1.27.15-1.73.45-.46.3-.69.76-.69,1.39s.24,1.11.71,1.45c.47.34,1.08.51,1.81.51Z"/>
    <path class="cls-2" d="M46.06,400v-9.72h1.16v1.22h.24c.19-.44.46-.76.83-.96.37-.2.88-.3,1.53-.3h1.14v1.12h-1.28c-.73,0-1.32.21-1.76.62-.44.41-.66,1.06-.66,1.94v6.08h-1.2Z"/>
    <path class="cls-2" d="M57.28,400.28c-.87,0-1.65-.2-2.36-.61-.71-.41-1.27-.99-1.69-1.74-.42-.75-.63-1.64-.63-2.67v-.24c0-1.03.21-1.92.62-2.67.41-.75.98-1.33,1.69-1.74.71-.41,1.5-.61,2.37-.61.72,0,1.33.1,1.82.29s.9.44,1.21.74c.31.3.56.62.73.95h.24v-5.98h1.2v14h-1.16v-1.78h-.24c-.28.53-.72,1.01-1.31,1.43-.59.42-1.42.63-2.49.63ZM57.56,399.2c1.11,0,2-.35,2.69-1.06.69-.71,1.03-1.68,1.03-2.92v-.16c0-1.24-.34-2.21-1.03-2.92-.69-.71-1.58-1.06-2.69-1.06s-1.99.35-2.68,1.06c-.69.71-1.04,1.68-1.04,2.92v.16c0,1.24.35,2.21,1.04,2.92.69.71,1.59,1.06,2.68,1.06Z"/>
    <path class="cls-2" d="M71.88,400.28c-1.73,0-3.11-.48-4.12-1.45-1.01-.97-1.52-2.35-1.52-4.15v-3.36c0-1.8.51-3.18,1.52-4.15,1.01-.97,2.39-1.45,4.12-1.45s3.05.47,3.99,1.41c.94.94,1.41,2.23,1.41,3.87v.12h-2.6v-.2c0-.83-.23-1.51-.69-2.04s-1.16-.8-2.11-.8-1.67.29-2.2.86-.8,1.35-.8,2.34v3.44c0,.97.27,1.75.8,2.33s1.27.87,2.2.87,1.65-.27,2.11-.81.69-1.22.69-2.03v-.36h2.6v.28c0,1.64-.47,2.93-1.41,3.87-.94.94-2.27,1.41-3.99,1.41Z"/>
    <path class="cls-2" d="M84.24,400.28c-.99,0-1.87-.2-2.66-.6-.79-.4-1.41-.98-1.86-1.74-.45-.76-.68-1.67-.68-2.74v-.32c0-1.07.23-1.98.68-2.74.45-.76,1.07-1.34,1.86-1.74.79-.4,1.67-.6,2.66-.6s1.87.2,2.66.6c.79.4,1.41.98,1.86,1.74.45.76.68,1.67.68,2.74v.32c0,1.07-.23,1.98-.68,2.74-.45.76-1.07,1.34-1.86,1.74-.79.4-1.67.6-2.66.6ZM84.24,398.04c.77,0,1.41-.25,1.92-.75.51-.5.76-1.22.76-2.15v-.2c0-.93-.25-1.65-.75-2.15s-1.14-.75-1.93-.75-1.41.25-1.92.75c-.51.5-.76,1.22-.76,2.15v.2c0,.93.25,1.65.76,2.15.51.5,1.15.75,1.92.75Z"/>
    <path class="cls-2" d="M95.54,400.16c-.77,0-1.45-.18-2.03-.53-.58-.35-1.03-.84-1.35-1.47-.32-.63-.48-1.35-.48-2.16v-5.92h2.52v5.72c0,.75.18,1.31.55,1.68.37.37.89.56,1.57.56.77,0,1.37-.26,1.8-.77.43-.51.64-1.23.64-2.15v-5.04h2.52v9.92h-2.48v-1.3h-.36c-.16.33-.46.66-.9.98-.44.32-1.11.48-2,.48Z"/>
    <path class="cls-2" d="M104.08,400v-9.92h2.48v1.3h.36c.16-.35.46-.68.9-.99.44-.31,1.11-.47,2-.47.77,0,1.45.18,2.03.53s1.03.84,1.35,1.46.48,1.34.48,2.17v5.92h-2.52v-5.72c0-.75-.18-1.31-.55-1.68-.37-.37-.89-.56-1.57-.56-.77,0-1.37.26-1.8.77-.43.51-.64,1.23-.64,2.15v5.04h-2.52Z"/>
    <path class="cls-2" d="M119.92,400c-.65,0-1.18-.2-1.59-.61-.41-.41-.61-.95-.61-1.63v-5.6h-2.48v-2.08h2.48v-3.08h2.52v3.08h2.72v2.08h-2.72v5.16c0,.4.19.6.56.6h1.92v2.08h-2.8Z"/>
    <path class="cls-2" d="M129.4,400.28c-.99,0-1.86-.21-2.61-.63-.75-.42-1.34-1.01-1.76-1.78-.42-.77-.63-1.67-.63-2.71v-.24c0-1.04.21-1.94.62-2.71.41-.77.99-1.36,1.74-1.78s1.61-.63,2.6-.63,1.82.22,2.54.65c.72.43,1.28,1.03,1.68,1.8s.6,1.66.6,2.67v.86h-7.22c.03.68.28,1.23.76,1.66.48.43,1.07.64,1.76.64s1.23-.15,1.56-.46c.33-.31.59-.65.76-1.02l2.06,1.08c-.19.35-.46.72-.81,1.13-.35.41-.82.75-1.41,1.04-.59.29-1.33.43-2.24.43ZM126.98,393.9h4.64c-.05-.57-.28-1.03-.69-1.38-.41-.35-.94-.52-1.59-.52s-1.22.17-1.62.52c-.4.35-.65.81-.74,1.38Z"/>
    <path class="cls-2" d="M136.42,400v-9.92h2.48v1.12h.36c.15-.4.39-.69.73-.88.34-.19.74-.28,1.19-.28h1.2v2.24h-1.24c-.64,0-1.17.17-1.58.51-.41.34-.62.86-.62,1.57v5.64h-2.52Z"/>
    <path class="cls-2" d="M148.22,400.28c-1.29,0-2.35-.28-3.18-.84-.83-.56-1.33-1.36-1.5-2.4l2.32-.6c.09.47.25.83.47,1.1.22.27.49.46.82.57.33.11.68.17,1.07.17.59,0,1.02-.1,1.3-.31.28-.21.42-.46.42-.77s-.13-.54-.4-.71-.69-.3-1.28-.41l-.56-.1c-.69-.13-1.33-.32-1.9-.55-.57-.23-1.03-.56-1.38-.97-.35-.41-.52-.95-.52-1.6,0-.99.36-1.74,1.08-2.27.72-.53,1.67-.79,2.84-.79,1.11,0,2.03.25,2.76.74s1.21,1.14,1.44,1.94l-2.34.72c-.11-.51-.32-.87-.65-1.08-.33-.21-.73-.32-1.21-.32s-.85.08-1.1.25c-.25.17-.38.4-.38.69,0,.32.13.56.4.71.27.15.63.27,1.08.35l.56.1c.75.13,1.42.31,2.03.53.61.22,1.09.53,1.44.94.35.41.53.96.53,1.65,0,1.04-.38,1.84-1.13,2.41-.75.57-1.76.85-3.03.85Z"/>
  </g>
  <use width="27" height="29.65" transform="translate(216.66 370.25)" xlink:href="#Hearts_Light_"/>
  <use width="27" height="29.65" transform="translate(35.68 103.96) scale(.84)" xlink:href="#Hearts"/>
  <use width="27" height="29.65" transform="translate(35.68 141.26) scale(.84)" xlink:href="#Hearts"/>
  <use width="27" height="29.65" transform="translate(35.68 178.39) scale(.84)" xlink:href="#Hearts"/>
  <use width="27" height="29.65" transform="translate(35.68 215.54) scale(.84)" xlink:href="#Hearts"/>
  <use width="27" height="29.65" transform="translate(35.68 252.7) scale(.84)" xlink:href="#Hearts"/>
  <use width="27" height="29.65" transform="translate(56.34 20.75)" xlink:href="#Hearts"/>
</svg>