<?xml version="1.0" encoding="UTF-8"?>
<svg id="Layer_1" data-name="Layer 1" xmlns="http://www.w3.org/2000/svg" xmlns:xlink="http://www.w3.org/1999/xlink" viewBox="0 0 300 420">
  <defs>
    <style>
      .cls-1 {
        fill: #ce2029;
      }

      .cls-2 {
        fill: #fbfffe;
      }
    </style>
    <symbol id="Diamonds" viewBox="0 0 19.15 29.65">
      <path class="cls-1" d="M19.15,14.82c-2.24,4.96-6.37,11.35-9.58,14.82-3.2-3.47-7.33-9.87-9.58-14.82C2.24,9.87,6.37,3.47,9.58,0c3.2,3.47,7.33,9.87,9.58,14.82Z"/>
    </symbol>
    <symbol id="Diamonds_Light_" data-name="Diamonds (Light)" viewBox="0 0 19.15 29.65">
      <path class="cls-2" d="M19.15,14.82c-2.24,4.96-6.37,11.35-9.58,14.82-3.2-3.47-7.33-9.87-9.58-14.82C2.24,9.87,6.37,3.47,9.58,0c3.2,3.47,7.33,9.87,9.58,14.82Z"/>
    </symbol>
  </defs>
  <rect class="cls-2" width="300" height="420" rx="20" ry="20"/>
  <path class="cls-1" d="M216,327.07c-17.07,0-32.16-2.56-45.28-7.68-13.12-5.12-23.36-12.53-30.72-22.24-7.36-9.7-11.04-21.17-11.04-34.4v-3.84c0-10.24,1.81-18.72,5.44-25.44,3.62-6.72,8.16-12,13.6-15.84,5.44-3.84,10.61-6.5,15.52-8v-5.76c-4.91-1.7-9.82-4.48-14.72-8.32-4.91-3.84-8.91-8.96-12-15.36-3.09-6.4-4.64-14.08-4.64-23.04v-3.84c0-11.73,3.46-22.03,10.4-30.88,6.93-8.85,16.69-15.78,29.28-20.8,12.58-5.01,27.31-7.52,44.16-7.52s31.57,2.51,44.16,7.52c12.58,5.02,22.34,11.95,29.28,20.8,6.93,8.85,10.4,19.15,10.4,30.88v3.84c0,8.96-1.55,16.64-4.64,23.04-3.1,6.4-7.04,11.52-11.84,15.36-4.8,3.84-9.76,6.62-14.88,8.32v5.76c5.12,1.5,10.35,4.16,15.68,8,5.33,3.84,9.81,9.12,13.44,15.84,3.62,6.72,5.44,15.2,5.44,25.44v3.84c0,13.23-3.68,24.7-11.04,34.4-7.36,9.71-17.6,17.12-30.72,22.24-13.12,5.12-28.21,7.68-45.28,7.68ZM216,290.59c14.72,0,26.08-2.83,34.08-8.48,8-5.65,12-13.17,12-22.56v-2.56c0-9.39-3.9-16.91-11.68-22.56-7.79-5.65-19.25-8.48-34.4-8.48s-26.35,2.83-34.24,8.48c-7.89,5.66-11.84,13.17-11.84,22.56v2.56c0,9.39,4,16.91,12,22.56,8,5.66,19.36,8.48,34.08,8.48ZM216,189.47c13.65,0,24.21-2.45,31.68-7.36,7.46-4.9,11.2-11.84,11.2-20.8v-2.56c0-8.96-3.84-15.89-11.52-20.8-7.68-4.9-18.13-7.36-31.36-7.36s-23.68,2.46-31.36,7.36c-7.68,4.91-11.52,11.84-11.52,20.8v2.56c0,8.96,3.73,15.9,11.2,20.8,7.47,4.91,18.03,7.36,31.68,7.36Z"/>
  <path class="cls-1" d="M0,320h300v80c0,11.04-8.96,20-20,20H20c-11.04,0-20-8.96-20-20v-80h0Z"/>
  <path class="cls-1" d="M32.9,50.5c-2.29,0-4.32-.34-6.08-1.03-1.76-.69-3.14-1.68-4.13-2.99-.99-1.3-1.48-2.84-1.48-4.62v-.52c0-1.38.24-2.52.73-3.42.49-.9,1.1-1.61,1.83-2.13.73-.52,1.43-.88,2.09-1.08v-.77c-.66-.23-1.32-.6-1.98-1.12-.66-.52-1.2-1.2-1.61-2.06-.42-.86-.62-1.89-.62-3.1v-.52c0-1.58.47-2.96,1.4-4.15.93-1.19,2.24-2.12,3.93-2.79,1.69-.67,3.67-1.01,5.93-1.01s4.24.34,5.93,1.01c1.69.67,3,1.61,3.93,2.79s1.4,2.57,1.4,4.15v.52c0,1.2-.21,2.24-.62,3.1-.42.86-.95,1.55-1.59,2.06-.65.52-1.31.89-2,1.12v.77c.69.2,1.39.56,2.11,1.08.72.52,1.32,1.22,1.81,2.13s.73,2.04.73,3.42v.52c0,1.78-.5,3.32-1.48,4.62-.99,1.31-2.36,2.3-4.13,2.99-1.76.69-3.79,1.03-6.08,1.03ZM32.9,45.59c1.98,0,3.5-.38,4.58-1.14,1.08-.76,1.61-1.77,1.61-3.03v-.34c0-1.26-.52-2.27-1.57-3.03-1.05-.76-2.59-1.14-4.62-1.14s-3.54.38-4.6,1.14c-1.06.76-1.59,1.77-1.59,3.03v.34c0,1.26.54,2.27,1.61,3.03,1.08.76,2.6,1.14,4.58,1.14ZM32.9,32.01c1.83,0,3.25-.33,4.26-.99,1-.66,1.5-1.59,1.5-2.79v-.34c0-1.2-.52-2.14-1.55-2.79s-2.44-.99-4.21-.99-3.18.33-4.21.99c-1.03.66-1.55,1.59-1.55,2.79v.34c0,1.2.5,2.14,1.5,2.79,1,.66,2.42.99,4.26.99Z"/>
  <path class="cls-2" d="M267.1,369.5c2.29,0,4.32.34,6.08,1.03,1.76.69,3.14,1.68,4.13,2.99.99,1.3,1.48,2.84,1.48,4.62v.52c0,1.38-.24,2.52-.73,3.42s-1.1,1.61-1.83,2.13c-.73.52-1.43.88-2.09,1.08v.77c.66.23,1.32.6,1.98,1.12.66.52,1.2,1.2,1.61,2.06.42.86.62,1.89.62,3.1v.52c0,1.58-.47,2.96-1.4,4.15s-2.24,2.12-3.93,2.79c-1.69.67-3.67,1.01-5.93,1.01s-4.24-.34-5.93-1.01c-1.69-.67-3-1.61-3.93-2.79s-1.4-2.57-1.4-4.15v-.52c0-1.2.21-2.24.62-3.1.42-.86.95-1.55,1.59-2.06.64-.52,1.31-.89,2-1.12v-.77c-.69-.2-1.39-.56-2.11-1.08-.72-.52-1.32-1.22-1.81-2.13-.49-.9-.73-2.04-.73-3.42v-.52c0-1.78.49-3.32,1.48-4.62.99-1.31,2.36-2.3,4.13-2.99,1.76-.69,3.79-1.03,6.08-1.03ZM267.1,374.41c-1.98,0-3.5.38-4.58,1.14-1.08.76-1.61,1.77-1.61,3.03v.34c0,1.26.52,2.27,1.57,3.03,1.05.76,2.59,1.14,4.62,1.14s3.54-.38,4.6-1.14c1.06-.76,1.59-1.77,1.59-3.03v-.34c0-1.26-.54-2.27-1.61-3.03-1.07-.76-2.6-1.14-4.58-1.14ZM267.1,387.99c-1.83,0-3.25.33-4.26.99-1,.66-1.51,1.59-1.51,2.79v.34c0,1.2.52,2.14,1.55,2.79,1.03.66,2.44.99,4.21.99s3.18-.33,4.21-.99c1.03-.66,1.55-1.59,1.55-2.79v-.34c0-1.2-.5-2.14-1.5-2.79-1-.66-2.42-.99-4.26-.99Z"/>
  <g>
    <path class="cls-2" d="M26.68,400.28c-1.64,0-2.95-.48-3.93-1.45s-1.47-2.38-1.47-4.25v-3.16c0-1.87.49-3.28,1.47-4.25s2.29-1.45,3.93-1.45,2.87.46,3.73,1.37c.86.91,1.29,2.16,1.29,3.73v.1h-1.28v-.14c0-1.15-.3-2.08-.91-2.81-.61-.73-1.55-1.09-2.83-1.09s-2.3.39-3.03,1.18c-.73.79-1.09,1.89-1.09,3.32v3.24c0,1.43.36,2.53,1.09,3.32.73.79,1.74,1.18,3.03,1.18s2.22-.36,2.83-1.09c.61-.73.91-1.66.91-2.81v-.3h1.28v.26c0,1.57-.43,2.82-1.29,3.73-.86.91-2.1,1.37-3.73,1.37Z"/>
    <path class="cls-2" d="M37.56,400.28c-.68,0-1.3-.12-1.85-.35-.55-.23-.99-.58-1.31-1.03-.32-.45-.48-1-.48-1.64s.16-1.19.48-1.62c.32-.43.75-.75,1.3-.96.55-.21,1.15-.32,1.82-.32h3.56v-.78c0-.79-.23-1.4-.68-1.84-.45-.44-1.11-.66-1.98-.66s-1.53.21-2.03.63-.84.98-1.01,1.69l-1.16-.34c.16-.57.41-1.09.76-1.55.35-.46.81-.83,1.38-1.1s1.26-.41,2.06-.41c1.23,0,2.18.32,2.85.96.67.64,1.01,1.53,1.01,2.68v4.72c0,.4.19.6.56.6h.94v1.04h-1.28c-.41,0-.74-.12-.98-.37-.24-.25-.36-.58-.36-1.01v-.14h-.2c-.17.29-.4.58-.67.86-.27.28-.63.51-1.07.68-.44.17-.99.26-1.66.26ZM37.64,399.2c1.03,0,1.86-.31,2.49-.93.63-.62.95-1.5.95-2.63v-.24h-3.54c-.69,0-1.27.15-1.73.45-.46.3-.69.76-.69,1.39s.24,1.11.71,1.45c.47.34,1.08.51,1.81.51Z"/>
    <path class="cls-2" d="M46.06,400v-9.72h1.16v1.22h.24c.19-.44.46-.76.83-.96.37-.2.88-.3,1.53-.3h1.14v1.12h-1.28c-.73,0-1.32.21-1.76.62-.44.41-.66,1.06-.66,1.94v6.08h-1.2Z"/>
    <path class="cls-2" d="M57.28,400.28c-.87,0-1.65-.2-2.36-.61-.71-.41-1.27-.99-1.69-1.74-.42-.75-.63-1.64-.63-2.67v-.24c0-1.03.21-1.92.62-2.67.41-.75.98-1.33,1.69-1.74.71-.41,1.5-.61,2.37-.61.72,0,1.33.1,1.82.29s.9.44,1.21.74c.31.3.56.62.73.95h.24v-5.98h1.2v14h-1.16v-1.78h-.24c-.28.53-.72,1.01-1.31,1.43-.59.42-1.42.63-2.49.63ZM57.56,399.2c1.11,0,2-.35,2.69-1.06.69-.71,1.03-1.68,1.03-2.92v-.16c0-1.24-.34-2.21-1.03-2.92-.69-.71-1.58-1.06-2.69-1.06s-1.99.35-2.68,1.06c-.69.71-1.04,1.68-1.04,2.92v.16c0,1.24.35,2.21,1.04,2.92.69.71,1.59,1.06,2.68,1.06Z"/>
    <path class="cls-2" d="M71.88,400.28c-1.73,0-3.11-.48-4.12-1.45-1.01-.97-1.52-2.35-1.52-4.15v-3.36c0-1.8.51-3.18,1.52-4.15,1.01-.97,2.39-1.45,4.12-1.45s3.05.47,3.99,1.41c.94.94,1.41,2.23,1.41,3.87v.12h-2.6v-.2c0-.83-.23-1.51-.69-2.04s-1.16-.8-2.11-.8-1.67.29-2.2.86-.8,1.35-.8,2.34v3.44c0,.97.27,1.75.8,2.33s1.27.87,2.2.87,1.65-.27,2.11-.81.69-1.22.69-2.03v-.36h2.6v.28c0,1.64-.47,2.93-1.41,3.87-.94.94-2.27,1.41-3.99,1.41Z"/>
    <path class="cls-2" d="M84.24,400.28c-.99,0-1.87-.2-2.66-.6-.79-.4-1.41-.98-1.86-1.74-.45-.76-.68-1.67-.68-2.74v-.32c0-1.07.23-1.98.68-2.74.45-.76,1.07-1.34,1.86-1.74.79-.4,1.67-.6,2.66-.6s1.87.2,2.66.6c.79.4,1.41.98,1.86,1.74.45.76.68,1.67.68,2.74v.32c0,1.07-.23,1.98-.68,2.74-.45.76-1.07,1.34-1.86,1.74-.79.4-1.67.6-2.66.6ZM84.24,398.04c.77,0,1.41-.25,1.92-.75.51-.5.76-1.22.76-2.15v-.2c0-.93-.25-1.65-.75-2.15s-1.14-.75-1.93-.75-1.41.25-1.92.75c-.51.5-.76,1.22-.76,2.15v.2c0,.93.25,1.65.76,2.15.51.5,1.15.75,1.92.75Z"/>
    <path class="cls-2" d="M95.54,400.16c-.77,0-1.45-.18-2.03-.53-.58-.35-1.03-.84-1.35-1.47-.32-.63-.48-1.35-.48-2.16v-5.92h2.52v5.72c0,.75.18,1.31.55,1.68.37.37.89.56,1.57.56.77,0,1.37-.26,1.8-.77.43-.51.64-1.23.64-2.15v-5.04h2.52v9.92h-2.48v-1.3h-.36c-.16.33-.46.66-.9.98-.44.32-1.11.48-2,.48Z"/>
    <path class="cls-2" d="M104.08,400v-9.92h2.48v1.3h.36c.16-.35.46-.68.9-.99.44-.31,1.11-.47,2-.47.77,0,1.45.18,2.03.53s1.03.84,1.35,1.46.48,1.34.48,2.17v5.92h-2.52v-5.72c0-.75-.18-1.31-.55-1.68-.37-.37-.89-.56-1.57-.56-.77,0-1.37.26-1.8.77-.43.51-.64,1.23-.64,2.15v5.04h-2.52Z"/>
    <path class="cls-2" d="M119.92,400c-.65,0-1.18-.2-1.59-.61-.41-.41-.61-.95-.61-1.63v-5.6h-2.48v-2.08h2.48v-3.08h2.52v3.08h2.72v2.08h-2.72v5.16c0,.4.19.6.56.6h1.92v2.08h-2.8Z"/>
    <path class="cls-2" d="M129.4,400.28c-.99,0-1.86-.21-2.61-.63-.75-.42-1.34-1.01-1.76-1.78-.42-.77-.63-1.67-.63-2.71v-.24c0-1.04.21-1.94.62-2.71.41-.77.99-1.36,1.74-1.78s1.61-.63,2.6-.63,1.82.22,2.54.65c.72.43,1.28,1.03,1.68,1.8s.6,1.66.6,2.67v.86h-7.22c.03.68.28,1.23.76,1.66.48.43,1.07.64,1.76.64s1.23-.15,1.56-.46c.33-.31.59-.65.76-1.02l2.06,1.08c-.19.35-.46.72-.81,1.13-.35.41-.82.75-1.41,1.04-.59.29-1.33.43-2.24.43ZM126.98,393.9h4.64c-.05-.57-.28-1.03-.69-1.38-.41-.35-.94-.52-1.59-.52s-1.22.17-1.62.52c-.4.35-.65.81-.74,1.38Z"/>
    <path class="cls-2" d="M136.42,400v-9.92h2.48v1.12h.36c.15-.4.39-.69.73-.88.34-.19.74-.28,1.19-.28h1.2v2.24h-1.24c-.64,0-1.17.17-1.58.51-.41.34-.62.86-.62,1.57v5.64h-2.52Z"/>
    <path class="cls-2" d="M148.22,400.28c-1.29,0-2.35-.28-3.18-.84-.83-.56-1.33-1.36-1.5-2.4l2.32-.6c.09.47.25.83.47,1.1.22.27.49.46.82.57.33.11.68.17,1.07.17.59,0,1.02-.1,1.3-.31.28-.21.42-.46.42-.77s-.13-.54-.4-.71-.69-.3-1.28-.41l-.56-.1c-.69-.13-1.33-.32-1.9-.55-.57-.23-1.03-.56-1.38-.97-.35-.41-.52-.95-.52-1.6,0-.99.36-1.74,1.08-2.27.72-.53,1.67-.79,2.84-.79,1.11,0,2.03.25,2.76.74.73.49,1.21,1.14,1.44,1.94l-2.34.72c-.11-.51-.32-.87-.65-1.08-.33-.21-.73-.32-1.21-.32s-.85.08-1.1.25c-.25.17-.38.4-.38.69,0,.32.13.56.4.71.27.15.63.27,1.08.35l.56.1c.75.13,1.42.31,2.03.53.61.22,1.09.53,1.44.94.35.41.53.96.53,1.65,0,1.04-.38,1.84-1.13,2.41-.75.57-1.76.85-3.03.85Z"/>
  </g>
  <use width="19.15" height="29.65" transform="translate(224.25 370.25)" xlink:href="#Diamonds_Light_"/>
  <use width="19.15" height="29.65" transform="translate(38.99 103.96) scale(.84)" xlink:href="#Diamonds"/>
  <use width="19.15" height="29.65" transform="translate(73.14 103.96) scale(.84)" xlink:href="#Diamonds"/>
  <use width="19.15" height="29.65" transform="translate(38.99 141.15) scale(.84)" xlink:href="#Diamonds"/>
  <use width="19.15" height="29.65" transform="translate(38.99 178.33) scale(.84)" xlink:href="#Diamonds"/>
  <use width="19.15" height="29.65" transform="translate(38.99 215.51) scale(.84)" xlink:href="#Diamonds"/>
  <use width="19.15" height="29.65" transform="translate(38.99 252.7) scale(.84)" xlink:href="#Diamonds"/>
  <use width="19.15" height="29.65" transform="translate(73.14 141.15) scale(.84)" xlink:href="#Diamonds"/>
  <use width="19.15" height="29.65" transform="translate(73.14 178.33) scale(.84)" xlink:href="#Diamonds"/>
  <use width="19.15" height="29.65" transform="translate(56.6 20.15)" xlink:href="#Diamonds"/>
</svg>