<?xml version="1.0" encoding="UTF-8"?>
<svg id="Layer_1" data-name="Layer 1" xmlns="http://www.w3.org/2000/svg" xmlns:xlink="http://www.w3.org/1999/xlink" viewBox="0 0 300 420">
  <defs>
    <style>
      .cls-1 {
        fill: #22181c;
      }

      .cls-2 {
        stroke: #fbfffe;
      }

      .cls-2, .cls-3 {
        fill: none;
        stroke-miterlimit: 10;
        stroke-width: 3px;
      }

      .cls-3 {
        stroke: #231f20;
      }

      .cls-4 {
        fill: #fbfffe;
      }
    </style>
    <symbol id="Club" viewBox="0 0 26.25 29.85">
      <g>
        <path class="cls-1" d="M19.25,10.81c-.09,0-.18.01-.26.01.72-1.1,1.14-2.41,1.14-3.82,0-3.87-3.13-7-7-7s-7,3.13-7,7c0,1.41.42,2.72,1.14,3.82-.09,0-.18-.01-.26-.01-3.87,0-7,3.13-7,7s3.13,7,7,7c2.64,0,4.93-1.46,6.12-3.61,1.19,2.15,3.49,3.61,6.12,3.61,3.87,0,7-3.13,7-7s-3.13-7-7-7Z"/>
        <polygon class="cls-1" points="13.12 24.65 10.12 29.85 16.12 29.85 13.12 24.65"/>
      </g>
    </symbol>
    <symbol id="Clubs_Light_" data-name="Clubs (Light)" viewBox="0 0 26.25 29.85">
      <g>
        <path class="cls-4" d="M7,19.04c.09,0,.18-.01.26-.01-.72,1.1-1.14,2.41-1.14,3.82,0,3.87,3.13,7,7,7s7-3.13,7-7c0-1.41-.42-2.72-1.14-3.82.09,0,.18.01.26.01,3.87,0,7-3.13,7-7s-3.13-7-7-7c-2.64,0-4.93,1.46-6.12,3.61-1.19-2.15-3.49-3.61-6.12-3.61-3.87,0-7,3.13-7,7s3.13,7,7,7Z"/>
        <polygon class="cls-4" points="13.12 5.2 16.12 0 10.12 0 13.12 5.2"/>
      </g>
    </symbol>
  </defs>
  <rect class="cls-4" width="300" height="420" rx="20" ry="20"/>
  <path class="cls-1" d="M214.24,327.07c-16.64,0-31.09-2.78-43.36-8.32-12.27-5.54-21.76-13.54-28.48-24-6.72-10.45-10.08-22.93-10.08-37.44h41.6c0,8.96,3.14,16.75,9.44,23.36,6.29,6.62,16.58,9.92,30.88,9.92s25.6-3.79,33.28-11.36c7.68-7.57,11.52-17.86,11.52-30.88v-23.04h-5.76c-3.63,4.27-9.12,8.32-16.48,12.16-7.36,3.84-18.29,5.76-32.8,5.76-12.8,0-24.75-2.77-35.84-8.32-11.09-5.54-20.05-13.6-26.88-24.16-6.83-10.56-10.24-23.31-10.24-38.24v-3.84c0-14.93,3.52-27.95,10.56-39.04,7.04-11.09,16.96-19.79,29.76-26.08,12.8-6.29,27.73-9.44,44.8-9.44s31.89,3.2,44.48,9.6c12.59,6.4,22.29,15.25,29.12,26.56,6.82,11.31,10.24,24.32,10.24,39.04v76.48c0,18.13-3.68,33.23-11.04,45.28-7.36,12.05-17.49,21.07-30.4,27.04-12.91,5.97-27.68,8.96-44.32,8.96ZM215.52,210.59c8.96,0,16.69-1.6,23.2-4.8,6.51-3.2,11.52-7.68,15.04-13.44,3.52-5.76,5.28-12.58,5.28-20.48v-2.56c0-11.95-3.89-21.39-11.68-28.32-7.79-6.93-18.4-10.4-31.84-10.4s-24.05,3.47-31.84,10.4c-7.79,6.94-11.68,16.38-11.68,28.32v2.56c0,7.9,1.76,14.72,5.28,20.48,3.52,5.76,8.58,10.24,15.2,13.44,6.61,3.2,14.29,4.8,23.04,4.8Z"/>
  <path class="cls-1" d="M0,320h300v80c0,11.04-8.96,20-20,20H20c-11.04,0-20-8.96-20-20v-80h0Z"/>
  <g>
    <path class="cls-4" d="M26.68,400.28c-1.64,0-2.95-.48-3.93-1.45s-1.47-2.38-1.47-4.25v-3.16c0-1.87.49-3.28,1.47-4.25s2.29-1.45,3.93-1.45,2.87.46,3.73,1.37c.86.91,1.29,2.16,1.29,3.73v.1h-1.28v-.14c0-1.15-.3-2.08-.91-2.81-.61-.73-1.55-1.09-2.83-1.09s-2.3.39-3.03,1.18c-.73.79-1.09,1.89-1.09,3.32v3.24c0,1.43.36,2.53,1.09,3.32.73.79,1.74,1.18,3.03,1.18s2.22-.36,2.83-1.09c.61-.73.91-1.66.91-2.81v-.3h1.28v.26c0,1.57-.43,2.82-1.29,3.73-.86.91-2.1,1.37-3.73,1.37Z"/>
    <path class="cls-4" d="M37.56,400.28c-.68,0-1.3-.12-1.85-.35-.55-.23-.99-.58-1.31-1.03-.32-.45-.48-1-.48-1.64s.16-1.19.48-1.62c.32-.43.75-.75,1.3-.96.55-.21,1.15-.32,1.82-.32h3.56v-.78c0-.79-.23-1.4-.68-1.84-.45-.44-1.11-.66-1.98-.66s-1.53.21-2.03.63-.84.98-1.01,1.69l-1.16-.34c.16-.57.41-1.09.76-1.55.35-.46.81-.83,1.38-1.1.57-.27,1.26-.41,2.06-.41,1.23,0,2.18.32,2.85.96s1.01,1.53,1.01,2.68v4.72c0,.4.19.6.56.6h.94v1.04h-1.28c-.41,0-.74-.12-.98-.37-.24-.25-.36-.58-.36-1.01v-.14h-.2c-.17.29-.4.58-.67.86-.27.28-.63.51-1.07.68-.44.17-.99.26-1.66.26ZM37.64,399.2c1.03,0,1.86-.31,2.49-.93.63-.62.95-1.5.95-2.63v-.24h-3.54c-.69,0-1.27.15-1.73.45-.46.3-.69.76-.69,1.39s.24,1.11.71,1.45c.47.34,1.08.51,1.81.51Z"/>
    <path class="cls-4" d="M46.06,400v-9.72h1.16v1.22h.24c.19-.44.46-.76.83-.96.37-.2.88-.3,1.53-.3h1.14v1.12h-1.28c-.73,0-1.32.21-1.76.62-.44.41-.66,1.06-.66,1.94v6.08h-1.2Z"/>
    <path class="cls-4" d="M57.28,400.28c-.87,0-1.65-.2-2.36-.61-.71-.41-1.27-.99-1.69-1.74-.42-.75-.63-1.64-.63-2.67v-.24c0-1.03.21-1.92.62-2.67.41-.75.98-1.33,1.69-1.74.71-.41,1.5-.61,2.37-.61.72,0,1.33.1,1.82.29.49.19.9.44,1.21.74s.56.62.73.95h.24v-5.98h1.2v14h-1.16v-1.78h-.24c-.28.53-.72,1.01-1.31,1.43-.59.42-1.42.63-2.49.63ZM57.56,399.2c1.11,0,2-.35,2.69-1.06.69-.71,1.03-1.68,1.03-2.92v-.16c0-1.24-.34-2.21-1.03-2.92-.69-.71-1.58-1.06-2.69-1.06s-1.99.35-2.68,1.06c-.69.71-1.04,1.68-1.04,2.92v.16c0,1.24.35,2.21,1.04,2.92.69.71,1.59,1.06,2.68,1.06Z"/>
    <path class="cls-4" d="M71.88,400.28c-1.73,0-3.11-.48-4.12-1.45-1.01-.97-1.52-2.35-1.52-4.15v-3.36c0-1.8.51-3.18,1.52-4.15,1.01-.97,2.39-1.45,4.12-1.45s3.05.47,3.99,1.41c.94.94,1.41,2.23,1.41,3.87v.12h-2.6v-.2c0-.83-.23-1.51-.69-2.04s-1.16-.8-2.11-.8-1.67.29-2.2.86-.8,1.35-.8,2.34v3.44c0,.97.27,1.75.8,2.33s1.27.87,2.2.87,1.65-.27,2.11-.81.69-1.22.69-2.03v-.36h2.6v.28c0,1.64-.47,2.93-1.41,3.87-.94.94-2.27,1.41-3.99,1.41Z"/>
    <path class="cls-4" d="M84.24,400.28c-.99,0-1.87-.2-2.66-.6-.79-.4-1.41-.98-1.86-1.74-.45-.76-.68-1.67-.68-2.74v-.32c0-1.07.23-1.98.68-2.74.45-.76,1.07-1.34,1.86-1.74.79-.4,1.67-.6,2.66-.6s1.87.2,2.66.6c.79.4,1.41.98,1.86,1.74.45.76.68,1.67.68,2.74v.32c0,1.07-.23,1.98-.68,2.74-.45.76-1.07,1.34-1.86,1.74-.79.4-1.67.6-2.66.6ZM84.24,398.04c.77,0,1.41-.25,1.92-.75.51-.5.76-1.22.76-2.15v-.2c0-.93-.25-1.65-.75-2.15s-1.14-.75-1.93-.75-1.41.25-1.92.75c-.51.5-.76,1.22-.76,2.15v.2c0,.93.25,1.65.76,2.15.51.5,1.15.75,1.92.75Z"/>
    <path class="cls-4" d="M95.54,400.16c-.77,0-1.45-.18-2.03-.53-.58-.35-1.03-.84-1.35-1.47-.32-.63-.48-1.35-.48-2.16v-5.92h2.52v5.72c0,.75.18,1.31.55,1.68.37.37.89.56,1.57.56.77,0,1.37-.26,1.8-.77.43-.51.64-1.23.64-2.15v-5.04h2.52v9.92h-2.48v-1.3h-.36c-.16.33-.46.66-.9.98-.44.32-1.11.48-2,.48Z"/>
    <path class="cls-4" d="M104.08,400v-9.92h2.48v1.3h.36c.16-.35.46-.68.9-.99.44-.31,1.11-.47,2-.47.77,0,1.45.18,2.03.53s1.03.84,1.35,1.46.48,1.34.48,2.17v5.92h-2.52v-5.72c0-.75-.18-1.31-.55-1.68-.37-.37-.89-.56-1.57-.56-.77,0-1.37.26-1.8.77-.43.51-.64,1.23-.64,2.15v5.04h-2.52Z"/>
    <path class="cls-4" d="M119.92,400c-.65,0-1.18-.2-1.59-.61-.41-.41-.61-.95-.61-1.63v-5.6h-2.48v-2.08h2.48v-3.08h2.52v3.08h2.72v2.08h-2.72v5.16c0,.4.19.6.56.6h1.92v2.08h-2.8Z"/>
    <path class="cls-4" d="M129.4,400.28c-.99,0-1.86-.21-2.61-.63-.75-.42-1.34-1.01-1.76-1.78s-.63-1.67-.63-2.71v-.24c0-1.04.21-1.94.62-2.71.41-.77.99-1.36,1.74-1.78.75-.42,1.61-.63,2.6-.63s1.82.22,2.54.65,1.28,1.03,1.68,1.8c.4.77.6,1.66.6,2.67v.86h-7.22c.03.68.28,1.23.76,1.66.48.43,1.07.64,1.76.64s1.23-.15,1.56-.46c.33-.31.59-.65.76-1.02l2.06,1.08c-.19.35-.46.72-.81,1.13-.35.41-.82.75-1.41,1.04-.59.29-1.33.43-2.24.43ZM126.98,393.9h4.64c-.05-.57-.28-1.03-.69-1.38-.41-.35-.94-.52-1.59-.52s-1.22.17-1.62.52c-.4.35-.65.81-.74,1.38Z"/>
    <path class="cls-4" d="M136.42,400v-9.92h2.48v1.12h.36c.15-.4.39-.69.73-.88.34-.19.74-.28,1.19-.28h1.2v2.24h-1.24c-.64,0-1.17.17-1.58.51s-.62.86-.62,1.57v5.64h-2.52Z"/>
    <path class="cls-4" d="M148.22,400.28c-1.29,0-2.35-.28-3.18-.84-.83-.56-1.33-1.36-1.5-2.4l2.32-.6c.09.47.25.83.47,1.1.22.27.49.46.82.57.33.11.68.17,1.07.17.59,0,1.02-.1,1.3-.31.28-.21.42-.46.42-.77s-.13-.54-.4-.71c-.27-.17-.69-.3-1.28-.41l-.56-.1c-.69-.13-1.33-.32-1.9-.55-.57-.23-1.03-.56-1.38-.97-.35-.41-.52-.95-.52-1.6,0-.99.36-1.74,1.08-2.27.72-.53,1.67-.79,2.84-.79,1.11,0,2.03.25,2.76.74.73.49,1.21,1.14,1.44,1.94l-2.34.72c-.11-.51-.32-.87-.65-1.08-.33-.21-.73-.32-1.21-.32s-.85.08-1.1.25c-.25.17-.38.4-.38.69,0,.32.13.56.4.71.27.15.63.27,1.08.35l.56.1c.75.13,1.42.31,2.03.53.61.22,1.09.53,1.44.94.35.41.53.96.53,1.65,0,1.04-.38,1.84-1.13,2.41-.75.57-1.76.85-3.03.85Z"/>
  </g>
  <path class="cls-1" d="M32.9,50.5c-2.24,0-4.18-.37-5.83-1.12-1.65-.75-2.92-1.82-3.83-3.23-.9-1.4-1.35-3.08-1.35-5.03h5.59c0,1.2.42,2.25,1.27,3.14.84.89,2.23,1.33,4.15,1.33s3.44-.51,4.47-1.53,1.55-2.4,1.55-4.15v-3.1h-.77c-.49.57-1.23,1.12-2.21,1.63-.99.52-2.46.77-4.41.77-1.72,0-3.33-.37-4.82-1.12-1.49-.75-2.69-1.83-3.61-3.25-.92-1.42-1.38-3.13-1.38-5.14v-.52c0-2.01.47-3.76,1.42-5.25.95-1.49,2.28-2.66,4-3.5,1.72-.84,3.73-1.27,6.02-1.27s4.29.43,5.98,1.29,3,2.05,3.91,3.57c.92,1.52,1.38,3.27,1.38,5.25v10.28c0,2.44-.49,4.47-1.48,6.08-.99,1.62-2.35,2.83-4.08,3.63-1.73.8-3.72,1.2-5.96,1.2ZM33.07,34.84c1.2,0,2.24-.21,3.12-.65.87-.43,1.55-1.03,2.02-1.81.47-.77.71-1.69.71-2.75v-.34c0-1.61-.52-2.87-1.57-3.81-1.05-.93-2.47-1.4-4.28-1.4s-3.23.47-4.28,1.4c-1.05.93-1.57,2.2-1.57,3.81v.34c0,1.06.24,1.98.71,2.75.47.77,1.15,1.38,2.04,1.81.89.43,1.92.65,3.1.65Z"/>
  <line class="cls-3" x1="21.72" y1="50.5" x2="44.42" y2="50.5"/>
  <path class="cls-4" d="M267.1,369.5c2.24,0,4.18.37,5.83,1.12,1.65.75,2.92,1.82,3.83,3.23.9,1.4,1.35,3.08,1.35,5.03h-5.59c0-1.2-.42-2.25-1.27-3.14s-2.23-1.33-4.15-1.33-3.44.51-4.47,1.53c-1.03,1.02-1.55,2.4-1.55,4.15v3.1h.77c.49-.57,1.23-1.12,2.21-1.63.99-.52,2.46-.77,4.41-.77,1.72,0,3.33.37,4.82,1.12,1.49.75,2.69,1.83,3.61,3.25.92,1.42,1.38,3.13,1.38,5.14v.52c0,2.01-.47,3.76-1.42,5.25-.95,1.49-2.28,2.66-4,3.5-1.72.84-3.73,1.27-6.02,1.27s-4.29-.43-5.98-1.29-3-2.05-3.91-3.57c-.92-1.52-1.38-3.27-1.38-5.25v-10.28c0-2.44.49-4.47,1.48-6.08.99-1.62,2.35-2.83,4.08-3.63,1.74-.8,3.72-1.2,5.96-1.2ZM266.93,385.16c-1.2,0-2.24.21-3.12.65-.87.43-1.55,1.03-2.02,1.81s-.71,1.69-.71,2.75v.34c0,1.61.52,2.87,1.57,3.81s2.47,1.4,4.28,1.4,3.23-.47,4.28-1.4,1.57-2.2,1.57-3.81v-.34c0-1.06-.24-1.98-.71-2.75-.47-.77-1.15-1.38-2.04-1.81-.89-.43-1.92-.65-3.1-.65Z"/>
  <line class="cls-2" x1="255.58" y1="369.5" x2="278.28" y2="369.5"/>
  <use width="26.25" height="29.85" transform="translate(217.33 370.15)" xlink:href="#Clubs_Light_"/>
  <use width="26.25" height="29.85" transform="translate(36 103.88) scale(.84)" xlink:href="#Club"/>
  <use width="26.25" height="29.85" transform="translate(70.15 103.88) scale(.84)" xlink:href="#Club"/>
  <use width="26.25" height="29.85" transform="translate(36 141.06) scale(.84)" xlink:href="#Club"/>
  <use width="26.25" height="29.85" transform="translate(36 178.25) scale(.84)" xlink:href="#Club"/>
  <use width="26.25" height="29.85" transform="translate(36 215.43) scale(.84)" xlink:href="#Club"/>
  <use width="26.25" height="29.85" transform="translate(36 252.61) scale(.84)" xlink:href="#Club"/>
  <use width="26.25" height="29.85" transform="translate(70.15 141.06) scale(.84)" xlink:href="#Club"/>
  <use width="26.25" height="29.85" transform="translate(70.15 178.25) scale(.84)" xlink:href="#Club"/>
  <use width="26.25" height="29.85" transform="translate(70.15 215.43) scale(.84)" xlink:href="#Club"/>
  <use width="26.25" height="29.85" transform="translate(56.42 20.05)" xlink:href="#Club"/>
</svg>