<?xml version="1.0" encoding="UTF-8"?>
<svg id="Layer_1" data-name="Layer 1" xmlns="http://www.w3.org/2000/svg" xmlns:xlink="http://www.w3.org/1999/xlink" viewBox="0 0 300 420">
  <defs>
    <style>
      .cls-1 {
        fill: none;
      }

      .cls-2 {
        fill: #22181c;
      }

      .cls-3 {
        fill: #fbfffe;
      }
    </style>
    <symbol id="Spades" viewBox="0 0 26.25 29.85">
      <g>
        <polygon class="cls-2" points="10.12 29.85 16.12 29.85 13.12 24.65 10.12 29.85"/>
        <path class="cls-2" d="M13.12,0S0,10.69,0,16.81c0,3.87,3.13,8,7,8,2.64,0,4.93-1.46,6.12-3.61,1.19,2.15,3.49,3.61,6.12,3.61,3.87,0,7-4.13,7-8C26.25,10.69,13.12,0,13.12,0Z"/>
      </g>
    </symbol>
    <symbol id="Spades_Light_" data-name="Spades (Light)" viewBox="0 0 26.25 29.85">
      <g>
        <polygon class="cls-3" points="16.12 0 10.12 0 13.12 5.2 16.12 0"/>
        <path class="cls-3" d="M13.12,29.85s13.12-10.69,13.12-16.81c0-3.87-3.13-8-7-8-2.64,0-4.93,1.46-6.12,3.61-1.19-2.15-3.49-3.61-6.12-3.61C3.13,5.04,0,9.17,0,13.04c0,6.12,13.12,16.81,13.12,16.81Z"/>
      </g>
    </symbol>
  </defs>
  <rect class="cls-3" x=".35" width="300" height="420" rx="20" ry="20"/>
  <path class="cls-2" d="M54.32,322.59l58.88-224h73.6l58.88,224h-43.52l-12.16-49.28h-80l-12.16,49.28h-43.52ZM119.92,234.27h60.16l-27.2-109.12h-5.76l-27.2,109.12Z"/>
  <path class="cls-2" d="M.35,320h300v80c0,11.04-8.96,20-20,20H20.35c-11.04,0-20-8.96-20-20v-80H.35Z"/>
  <g>
    <path class="cls-3" d="M27.03,400.28c-1.64,0-2.95-.48-3.93-1.45-.98-.97-1.47-2.38-1.47-4.25v-3.16c0-1.87.49-3.28,1.47-4.25.98-.97,2.29-1.45,3.93-1.45s2.87.46,3.73,1.37c.86.91,1.29,2.16,1.29,3.73v.1h-1.28v-.14c0-1.15-.3-2.08-.91-2.81-.61-.73-1.55-1.09-2.83-1.09s-2.3.39-3.03,1.18c-.73.79-1.09,1.89-1.09,3.32v3.24c0,1.43.36,2.53,1.09,3.32.73.79,1.74,1.18,3.03,1.18s2.22-.36,2.83-1.09c.61-.73.91-1.66.91-2.81v-.3h1.28v.26c0,1.57-.43,2.82-1.29,3.73-.86.91-2.1,1.37-3.73,1.37Z"/>
    <path class="cls-3" d="M37.91,400.28c-.68,0-1.3-.12-1.85-.35-.55-.23-.99-.58-1.31-1.03s-.48-1-.48-1.64.16-1.19.48-1.62c.32-.43.75-.75,1.3-.96.55-.21,1.15-.32,1.82-.32h3.56v-.78c0-.79-.23-1.4-.68-1.84-.45-.44-1.11-.66-1.98-.66s-1.53.21-2.03.63-.84.98-1.01,1.69l-1.16-.34c.16-.57.41-1.09.76-1.55.35-.46.81-.83,1.38-1.1s1.26-.41,2.06-.41c1.23,0,2.18.32,2.85.96.67.64,1.01,1.53,1.01,2.68v4.72c0,.4.19.6.56.6h.94v1.04h-1.28c-.41,0-.74-.12-.98-.37-.24-.25-.36-.58-.36-1.01v-.14h-.2c-.17.29-.4.58-.67.86-.27.28-.63.51-1.07.68-.44.17-.99.26-1.66.26ZM37.99,399.2c1.03,0,1.86-.31,2.49-.93.63-.62.95-1.5.95-2.63v-.24h-3.54c-.69,0-1.27.15-1.73.45-.46.3-.69.76-.69,1.39s.24,1.11.71,1.45c.47.34,1.08.51,1.81.51Z"/>
    <path class="cls-3" d="M46.41,400v-9.72h1.16v1.22h.24c.19-.44.46-.76.83-.96.37-.2.88-.3,1.53-.3h1.14v1.12h-1.28c-.73,0-1.32.21-1.76.62-.44.41-.66,1.06-.66,1.94v6.08h-1.2Z"/>
    <path class="cls-3" d="M57.63,400.28c-.87,0-1.65-.2-2.36-.61s-1.27-.99-1.69-1.74c-.42-.75-.63-1.64-.63-2.67v-.24c0-1.03.21-1.92.62-2.67.41-.75.98-1.33,1.69-1.74.71-.41,1.5-.61,2.37-.61.72,0,1.33.1,1.82.29s.9.44,1.21.74c.31.3.56.62.73.95h.24v-5.98h1.2v14h-1.16v-1.78h-.24c-.28.53-.72,1.01-1.31,1.43s-1.42.63-2.49.63ZM57.91,399.2c1.11,0,2-.35,2.69-1.06.69-.71,1.03-1.68,1.03-2.92v-.16c0-1.24-.34-2.21-1.03-2.92-.69-.71-1.58-1.06-2.69-1.06s-1.99.35-2.68,1.06c-.69.71-1.04,1.68-1.04,2.92v.16c0,1.24.35,2.21,1.04,2.92.69.71,1.59,1.06,2.68,1.06Z"/>
    <path class="cls-3" d="M72.23,400.28c-1.73,0-3.11-.48-4.12-1.45s-1.52-2.35-1.52-4.15v-3.36c0-1.8.51-3.18,1.52-4.15s2.39-1.45,4.12-1.45,3.05.47,3.99,1.41,1.41,2.23,1.41,3.87v.12h-2.6v-.2c0-.83-.23-1.51-.69-2.04-.46-.53-1.16-.8-2.11-.8s-1.67.29-2.2.86-.8,1.35-.8,2.34v3.44c0,.97.27,1.75.8,2.33s1.27.87,2.2.87,1.65-.27,2.11-.81c.46-.54.69-1.22.69-2.03v-.36h2.6v.28c0,1.64-.47,2.93-1.41,3.87s-2.27,1.41-3.99,1.41Z"/>
    <path class="cls-3" d="M84.59,400.28c-.99,0-1.87-.2-2.66-.6-.79-.4-1.41-.98-1.86-1.74-.45-.76-.68-1.67-.68-2.74v-.32c0-1.07.23-1.98.68-2.74.45-.76,1.07-1.34,1.86-1.74.79-.4,1.67-.6,2.66-.6s1.87.2,2.66.6c.79.4,1.41.98,1.86,1.74.45.76.68,1.67.68,2.74v.32c0,1.07-.23,1.98-.68,2.74-.45.76-1.07,1.34-1.86,1.74-.79.4-1.67.6-2.66.6ZM84.59,398.04c.77,0,1.41-.25,1.92-.75.51-.5.76-1.22.76-2.15v-.2c0-.93-.25-1.65-.75-2.15s-1.14-.75-1.93-.75-1.41.25-1.92.75c-.51.5-.76,1.22-.76,2.15v.2c0,.93.25,1.65.76,2.15.51.5,1.15.75,1.92.75Z"/>
    <path class="cls-3" d="M95.89,400.16c-.77,0-1.45-.18-2.03-.53-.58-.35-1.03-.84-1.35-1.47s-.48-1.35-.48-2.16v-5.92h2.52v5.72c0,.75.18,1.31.55,1.68.37.37.89.56,1.57.56.77,0,1.37-.26,1.8-.77.43-.51.64-1.23.64-2.15v-5.04h2.52v9.92h-2.48v-1.3h-.36c-.16.33-.46.66-.9.98-.44.32-1.11.48-2,.48Z"/>
    <path class="cls-3" d="M104.43,400v-9.92h2.48v1.3h.36c.16-.35.46-.68.9-.99.44-.31,1.11-.47,2-.47.77,0,1.45.18,2.03.53s1.03.84,1.35,1.46c.32.62.48,1.34.48,2.17v5.92h-2.52v-5.72c0-.75-.18-1.31-.55-1.68-.37-.37-.89-.56-1.57-.56-.77,0-1.37.26-1.8.77-.43.51-.64,1.23-.64,2.15v5.04h-2.52Z"/>
    <path class="cls-3" d="M120.27,400c-.65,0-1.18-.2-1.59-.61-.41-.41-.61-.95-.61-1.63v-5.6h-2.48v-2.08h2.48v-3.08h2.52v3.08h2.72v2.08h-2.72v5.16c0,.4.19.6.56.6h1.92v2.08h-2.8Z"/>
    <path class="cls-3" d="M129.75,400.28c-.99,0-1.86-.21-2.61-.63s-1.34-1.01-1.76-1.78c-.42-.77-.63-1.67-.63-2.71v-.24c0-1.04.21-1.94.62-2.71.41-.77.99-1.36,1.74-1.78s1.61-.63,2.6-.63,1.82.22,2.54.65c.72.43,1.28,1.03,1.68,1.8s.6,1.66.6,2.67v.86h-7.22c.03.68.28,1.23.76,1.66.48.43,1.07.64,1.76.64s1.23-.15,1.56-.46.59-.65.76-1.02l2.06,1.08c-.19.35-.46.72-.81,1.13-.35.41-.82.75-1.41,1.04-.59.29-1.33.43-2.24.43ZM127.33,393.9h4.64c-.05-.57-.28-1.03-.69-1.38-.41-.35-.94-.52-1.59-.52s-1.22.17-1.62.52c-.4.35-.65.81-.74,1.38Z"/>
    <path class="cls-3" d="M136.77,400v-9.92h2.48v1.12h.36c.15-.4.39-.69.73-.88s.74-.28,1.19-.28h1.2v2.24h-1.24c-.64,0-1.17.17-1.58.51-.41.34-.62.86-.62,1.57v5.64h-2.52Z"/>
    <path class="cls-3" d="M148.57,400.28c-1.29,0-2.35-.28-3.18-.84-.83-.56-1.33-1.36-1.5-2.4l2.32-.6c.09.47.25.83.47,1.1.22.27.49.46.82.57.33.11.68.17,1.07.17.59,0,1.02-.1,1.3-.31.28-.21.42-.46.42-.77s-.13-.54-.4-.71-.69-.3-1.28-.41l-.56-.1c-.69-.13-1.33-.32-1.9-.55-.57-.23-1.03-.56-1.38-.97s-.52-.95-.52-1.6c0-.99.36-1.74,1.08-2.27.72-.53,1.67-.79,2.84-.79,1.11,0,2.03.25,2.76.74s1.21,1.14,1.44,1.94l-2.34.72c-.11-.51-.32-.87-.65-1.08s-.73-.32-1.21-.32-.85.08-1.1.25c-.25.17-.38.4-.38.69,0,.32.13.56.4.71.27.15.63.27,1.08.35l.56.1c.75.13,1.42.31,2.03.53.61.22,1.09.53,1.44.94.35.41.53.96.53,1.65,0,1.04-.38,1.84-1.13,2.41-.75.57-1.76.85-3.03.85Z"/>
  </g>
  <path class="cls-1" d="M112.46,87.1c-.32-.67-.66-1.33-1-1.98"/>
  <path class="cls-1" d="M112.46,176.66c-.32.66-.65,1.32-1,1.97"/>
  <path class="cls-2" d="M21.13,49.89l7.91-30.1h9.89l7.91,30.1h-5.85l-1.63-6.62h-10.75l-1.63,6.62h-5.85ZM29.94,38.03h8.08l-3.66-14.66h-.77l-3.65,14.66Z"/>
  <path class="cls-3" d="M281.65,369.9l-7.91,30.1h-9.89l-7.91-30.1h5.85l1.63,6.62h10.75l1.63-6.62h5.85ZM272.83,381.77h-8.08l3.65,14.66h.77l3.66-14.66Z"/>
  <use width="26.25" height="29.85" transform="translate(217.68 370.15)" xlink:href="#Spades_Light_"/>
  <use width="26.25" height="29.85" transform="translate(58.84 20.05)" xlink:href="#Spades"/>
</svg>