<?xml version="1.0" encoding="UTF-8"?>
<svg id="Layer_1" data-name="Layer 1" xmlns="http://www.w3.org/2000/svg" xmlns:xlink="http://www.w3.org/1999/xlink" viewBox="0 0 300 420">
  <defs>
    <style>
      .cls-1, .cls-2 {
        fill: none;
      }

      .cls-3 {
        fill: #22181c;
      }

      .cls-4 {
        fill: #fbfffe;
      }

      .cls-2 {
        stroke: #22181c;
        stroke-miterlimit: 10;
        stroke-width: 10px;
      }
    </style>
    <symbol id="Spades" viewBox="0 0 26.25 29.85">
      <g>
        <polygon class="cls-3" points="10.12 29.85 16.12 29.85 13.12 24.65 10.12 29.85"/>
        <path class="cls-3" d="M13.12,0S0,10.69,0,16.81c0,3.87,3.13,8,7,8,2.64,0,4.93-1.46,6.12-3.61,1.19,2.15,3.49,3.61,6.12,3.61,3.87,0,7-4.13,7-8C26.25,10.69,13.12,0,13.12,0Z"/>
      </g>
    </symbol>
    <symbol id="Spades_Light_" data-name="Spades (Light)" viewBox="0 0 26.25 29.85">
      <g>
        <polygon class="cls-4" points="16.12 0 10.12 0 13.12 5.2 16.12 0"/>
        <path class="cls-4" d="M13.12,29.85s13.12-10.69,13.12-16.81c0-3.87-3.13-8-7-8-2.64,0-4.93,1.46-6.12,3.61-1.19-2.15-3.49-3.61-6.12-3.61C3.13,5.04,0,9.17,0,13.04c0,6.12,13.12,16.81,13.12,16.81Z"/>
      </g>
    </symbol>
  </defs>
  <path class="cls-3" d="M-190.29,322.59l65.6-112.96-64.96-111.04h48l44.48,80.96h5.76l44.48-80.96H1.07l-64.96,111.04L1.71,322.59h-48l-45.12-82.88h-5.76l-45.12,82.88h-48Z"/>
  <rect class="cls-4" width="300" height="420" rx="20" ry="20"/>
  <path class="cls-3" d="M210,327.07c-23.04,0-41.33-6.29-54.88-18.88-13.55-12.58-20.32-30.18-20.32-52.8v-21.12h42.24v21.12c0,10.03,2.77,17.87,8.32,23.52,5.54,5.65,13.33,8.48,23.36,8.48,9.38,0,16.69-2.77,21.92-8.32,5.23-5.55,7.84-13.44,7.84-23.68v-118.4h-38.4v-38.4h106.24v38.4h-25.6v118.4c0,23.25-6.29,41.02-18.88,53.28-12.59,12.27-29.87,18.4-51.84,18.4Z"/>
  <path class="cls-3" d="M0,320h300v80c0,11.04-8.96,20-20,20H20c-11.04,0-20-8.96-20-20v-80h0Z"/>
  <g>
    <path class="cls-4" d="M26.68,400.28c-1.64,0-2.95-.48-3.93-1.45s-1.47-2.38-1.47-4.25v-3.16c0-1.87.49-3.28,1.47-4.25s2.29-1.45,3.93-1.45,2.87.46,3.73,1.37c.86.91,1.29,2.16,1.29,3.73v.1h-1.28v-.14c0-1.15-.3-2.08-.91-2.81-.61-.73-1.55-1.09-2.83-1.09s-2.3.39-3.03,1.18c-.73.79-1.09,1.89-1.09,3.32v3.24c0,1.43.36,2.53,1.09,3.32.73.79,1.74,1.18,3.03,1.18s2.22-.36,2.83-1.09c.61-.73.91-1.66.91-2.81v-.3h1.28v.26c0,1.57-.43,2.82-1.29,3.73-.86.91-2.1,1.37-3.73,1.37Z"/>
    <path class="cls-4" d="M37.56,400.28c-.68,0-1.3-.12-1.85-.35-.55-.23-.99-.58-1.31-1.03-.32-.45-.48-1-.48-1.64s.16-1.19.48-1.62c.32-.43.75-.75,1.3-.96.55-.21,1.15-.32,1.82-.32h3.56v-.78c0-.79-.23-1.4-.68-1.84-.45-.44-1.11-.66-1.98-.66s-1.53.21-2.03.63-.84.98-1.01,1.69l-1.16-.34c.16-.57.41-1.09.76-1.55.35-.46.81-.83,1.38-1.1.57-.27,1.26-.41,2.06-.41,1.23,0,2.18.32,2.85.96s1.01,1.53,1.01,2.68v4.72c0,.4.19.6.56.6h.94v1.04h-1.28c-.41,0-.74-.12-.98-.37-.24-.25-.36-.58-.36-1.01v-.14h-.2c-.17.29-.4.58-.67.86-.27.28-.63.51-1.07.68-.44.17-.99.26-1.66.26ZM37.64,399.2c1.03,0,1.86-.31,2.49-.93.63-.62.95-1.5.95-2.63v-.24h-3.54c-.69,0-1.27.15-1.73.45-.46.3-.69.76-.69,1.39s.24,1.11.71,1.45c.47.34,1.08.51,1.81.51Z"/>
    <path class="cls-4" d="M46.06,400v-9.72h1.16v1.22h.24c.19-.44.46-.76.83-.96.37-.2.88-.3,1.53-.3h1.14v1.12h-1.28c-.73,0-1.32.21-1.76.62-.44.41-.66,1.06-.66,1.94v6.08h-1.2Z"/>
    <path class="cls-4" d="M57.28,400.28c-.87,0-1.65-.2-2.36-.61-.71-.41-1.27-.99-1.69-1.74-.42-.75-.63-1.64-.63-2.67v-.24c0-1.03.21-1.92.62-2.67.41-.75.98-1.33,1.69-1.74.71-.41,1.5-.61,2.37-.61.72,0,1.33.1,1.82.29.49.19.9.44,1.21.74s.56.62.73.95h.24v-5.98h1.2v14h-1.16v-1.78h-.24c-.28.53-.72,1.01-1.31,1.43-.59.42-1.42.63-2.49.63ZM57.56,399.2c1.11,0,2-.35,2.69-1.06.69-.71,1.03-1.68,1.03-2.92v-.16c0-1.24-.34-2.21-1.03-2.92-.69-.71-1.58-1.06-2.69-1.06s-1.99.35-2.68,1.06c-.69.71-1.04,1.68-1.04,2.92v.16c0,1.24.35,2.21,1.04,2.92.69.71,1.59,1.06,2.68,1.06Z"/>
    <path class="cls-4" d="M71.88,400.28c-1.73,0-3.11-.48-4.12-1.45-1.01-.97-1.52-2.35-1.52-4.15v-3.36c0-1.8.51-3.18,1.52-4.15,1.01-.97,2.39-1.45,4.12-1.45s3.05.47,3.99,1.41c.94.94,1.41,2.23,1.41,3.87v.12h-2.6v-.2c0-.83-.23-1.51-.69-2.04s-1.16-.8-2.11-.8-1.67.29-2.2.86-.8,1.35-.8,2.34v3.44c0,.97.27,1.75.8,2.33s1.27.87,2.2.87,1.65-.27,2.11-.81.69-1.22.69-2.03v-.36h2.6v.28c0,1.64-.47,2.93-1.41,3.87-.94.94-2.27,1.41-3.99,1.41Z"/>
    <path class="cls-4" d="M84.24,400.28c-.99,0-1.87-.2-2.66-.6-.79-.4-1.41-.98-1.86-1.74-.45-.76-.68-1.67-.68-2.74v-.32c0-1.07.23-1.98.68-2.74.45-.76,1.07-1.34,1.86-1.74.79-.4,1.67-.6,2.66-.6s1.87.2,2.66.6c.79.4,1.41.98,1.86,1.74.45.76.68,1.67.68,2.74v.32c0,1.07-.23,1.98-.68,2.74-.45.76-1.07,1.34-1.86,1.74-.79.4-1.67.6-2.66.6ZM84.24,398.04c.77,0,1.41-.25,1.92-.75.51-.5.76-1.22.76-2.15v-.2c0-.93-.25-1.65-.75-2.15s-1.14-.75-1.93-.75-1.41.25-1.92.75c-.51.5-.76,1.22-.76,2.15v.2c0,.93.25,1.65.76,2.15.51.5,1.15.75,1.92.75Z"/>
    <path class="cls-4" d="M95.54,400.16c-.77,0-1.45-.18-2.03-.53-.58-.35-1.03-.84-1.35-1.47-.32-.63-.48-1.35-.48-2.16v-5.92h2.52v5.72c0,.75.18,1.31.55,1.68.37.37.89.56,1.57.56.77,0,1.37-.26,1.8-.77.43-.51.64-1.23.64-2.15v-5.04h2.52v9.92h-2.48v-1.3h-.36c-.16.33-.46.66-.9.98-.44.32-1.11.48-2,.48Z"/>
    <path class="cls-4" d="M104.08,400v-9.92h2.48v1.3h.36c.16-.35.46-.68.9-.99.44-.31,1.11-.47,2-.47.77,0,1.45.18,2.03.53s1.03.84,1.35,1.46.48,1.34.48,2.17v5.92h-2.52v-5.72c0-.75-.18-1.31-.55-1.68-.37-.37-.89-.56-1.57-.56-.77,0-1.37.26-1.8.77-.43.51-.64,1.23-.64,2.15v5.04h-2.52Z"/>
    <path class="cls-4" d="M119.92,400c-.65,0-1.18-.2-1.59-.61-.41-.41-.61-.95-.61-1.63v-5.6h-2.48v-2.08h2.48v-3.08h2.52v3.08h2.72v2.08h-2.72v5.16c0,.4.19.6.56.6h1.92v2.08h-2.8Z"/>
    <path class="cls-4" d="M129.4,400.28c-.99,0-1.86-.21-2.61-.63-.75-.42-1.34-1.01-1.76-1.78s-.63-1.67-.63-2.71v-.24c0-1.04.21-1.94.62-2.71.41-.77.99-1.36,1.74-1.78.75-.42,1.61-.63,2.6-.63s1.82.22,2.54.65,1.28,1.03,1.68,1.8c.4.77.6,1.66.6,2.67v.86h-7.22c.03.68.28,1.23.76,1.66.48.43,1.07.64,1.76.64s1.23-.15,1.56-.46c.33-.31.59-.65.76-1.02l2.06,1.08c-.19.35-.46.72-.81,1.13-.35.41-.82.75-1.41,1.04-.59.29-1.33.43-2.24.43ZM126.98,393.9h4.64c-.05-.57-.28-1.03-.69-1.38-.41-.35-.94-.52-1.59-.52s-1.22.17-1.62.52c-.4.35-.65.81-.74,1.38Z"/>
    <path class="cls-4" d="M136.42,400v-9.92h2.48v1.12h.36c.15-.4.39-.69.73-.88.34-.19.74-.28,1.19-.28h1.2v2.24h-1.24c-.64,0-1.17.17-1.58.51s-.62.86-.62,1.57v5.64h-2.52Z"/>
    <path class="cls-4" d="M148.22,400.28c-1.29,0-2.35-.28-3.18-.84-.83-.56-1.33-1.36-1.5-2.4l2.32-.6c.09.47.25.83.47,1.1.22.27.49.46.82.57.33.11.68.17,1.07.17.59,0,1.02-.1,1.3-.31.28-.21.42-.46.42-.77s-.13-.54-.4-.71c-.27-.17-.69-.3-1.28-.41l-.56-.1c-.69-.13-1.33-.32-1.9-.55-.57-.23-1.03-.56-1.38-.97-.35-.41-.52-.95-.52-1.6,0-.99.36-1.74,1.08-2.27.72-.53,1.67-.79,2.84-.79,1.11,0,2.03.25,2.76.74.73.49,1.21,1.14,1.44,1.94l-2.34.72c-.11-.51-.32-.87-.65-1.08-.33-.21-.73-.32-1.21-.32s-.85.08-1.1.25c-.25.17-.38.4-.38.69,0,.32.13.56.4.71.27.15.63.27,1.08.35l.56.1c.75.13,1.42.31,2.03.53.61.22,1.09.53,1.44.94.35.41.53.96.53,1.65,0,1.04-.38,1.84-1.13,2.41-.75.57-1.76.85-3.03.85Z"/>
  </g>
  <path class="cls-3" d="M31.48,50.5c-3.1,0-5.55-.84-7.38-2.54s-2.73-4.06-2.73-7.1v-2.84h5.68v2.84c0,1.35.37,2.4,1.12,3.16s1.79,1.14,3.14,1.14c1.26,0,2.24-.37,2.95-1.12.7-.75,1.05-1.81,1.05-3.18v-15.91h-5.16v-5.16h14.28v5.16h-3.44v15.91c0,3.12-.85,5.51-2.54,7.16s-4.01,2.47-6.97,2.47Z"/>
  <path class="cls-4" d="M268.52,369.5c3.1,0,5.55.84,7.38,2.54s2.73,4.06,2.73,7.1v2.84h-5.68v-2.84c0-1.35-.37-2.4-1.12-3.16-.74-.76-1.79-1.14-3.14-1.14-1.26,0-2.24.37-2.95,1.12-.7.75-1.05,1.81-1.05,3.18v15.91h5.16v5.16h-14.28v-5.16h3.44v-15.91c0-3.12.85-5.51,2.54-7.16s4.01-2.47,6.97-2.47Z"/>
  <path class="cls-1" d="M112.11,87.1c-.32-.67-.66-1.33-1-1.98"/>
  <path class="cls-1" d="M112.11,176.66c-.32.66-.65,1.32-1,1.97"/>
  <g>
    <line class="cls-2" x1="61.81" y1="103.88" x2="61.81" y2="277.8"/>
    <polygon class="cls-3" points="61.81 95.22 56.81 103.88 66.81 103.88 61.81 95.22"/>
    <polygon class="cls-3" points="30.03 137 50.81 149 50.81 125 30.03 137"/>
    <path class="cls-3" d="M96.49,137c0,11.17-2.41,21.78-6.76,31.33l-16.92-9.76v-43.12l16.92-9.77c4.34,9.55,6.76,20.16,6.76,31.34Z"/>
  </g>
  <use width="26.25" height="29.85" transform="translate(217.33 370.15)" xlink:href="#Spades_Light_"/>
  <use width="26.25" height="29.85" transform="translate(56.42 20.05)" xlink:href="#Spades"/>
</svg>