<?xml version="1.0" encoding="UTF-8"?>
<svg id="Layer_1" data-name="Layer 1" xmlns="http://www.w3.org/2000/svg" xmlns:xlink="http://www.w3.org/1999/xlink" viewBox="0 0 300 420">
  <defs>
    <style>
      .cls-1 {
        stroke-width: 6px;
      }

      .cls-1, .cls-2 {
        fill: none;
        stroke: #ce2029;
        stroke-miterlimit: 10;
      }

      .cls-2 {
        stroke-width: 12px;
      }

      .cls-3 {
        fill: #ce2029;
      }

      .cls-4 {
        fill: #fbfffe;
      }
    </style>
    <symbol id="Diamonds" viewBox="0 0 19.15 29.65">
      <path class="cls-3" d="M19.15,14.82c-2.24,4.96-6.37,11.35-9.58,14.82-3.2-3.47-7.33-9.87-9.58-14.82C2.24,9.87,6.37,3.47,9.58,0c3.2,3.47,7.33,9.87,9.58,14.82Z"/>
    </symbol>
    <symbol id="Diamonds_Light_" data-name="Diamonds (Light)" viewBox="0 0 19.15 29.65">
      <path class="cls-4" d="M19.15,14.82c-2.24,4.96-6.37,11.35-9.58,14.82-3.2-3.47-7.33-9.87-9.58-14.82C2.24,9.87,6.37,3.47,9.58,0c3.2,3.47,7.33,9.87,9.58,14.82Z"/>
    </symbol>
  </defs>
  <rect class="cls-4" width="300" height="420" rx="20" ry="20"/>
  <path class="cls-3" d="M140.55,322.59V98.59h42.24v88.96h5.76l72.64-88.96h54.08l-93.44,110.4,96.64,113.6h-55.68l-74.24-90.88h-5.76v90.88h-42.24Z"/>
  <path class="cls-3" d="M0,320h300v80c0,11.04-8.96,20-20,20H20c-11.04,0-20-8.96-20-20v-80h0Z"/>
  <g>
    <path class="cls-4" d="M26.68,400.28c-1.64,0-2.95-.48-3.93-1.45s-1.47-2.38-1.47-4.25v-3.16c0-1.87.49-3.28,1.47-4.25s2.29-1.45,3.93-1.45,2.87.46,3.73,1.37c.86.91,1.29,2.16,1.29,3.73v.1h-1.28v-.14c0-1.15-.3-2.08-.91-2.81-.61-.73-1.55-1.09-2.83-1.09s-2.3.39-3.03,1.18c-.73.79-1.09,1.89-1.09,3.32v3.24c0,1.43.36,2.53,1.09,3.32.73.79,1.74,1.18,3.03,1.18s2.22-.36,2.83-1.09c.61-.73.91-1.66.91-2.81v-.3h1.28v.26c0,1.57-.43,2.82-1.29,3.73-.86.91-2.1,1.37-3.73,1.37Z"/>
    <path class="cls-4" d="M37.56,400.28c-.68,0-1.3-.12-1.85-.35-.55-.23-.99-.58-1.31-1.03-.32-.45-.48-1-.48-1.64s.16-1.19.48-1.62c.32-.43.75-.75,1.3-.96.55-.21,1.15-.32,1.82-.32h3.56v-.78c0-.79-.23-1.4-.68-1.84-.45-.44-1.11-.66-1.98-.66s-1.53.21-2.03.63-.84.98-1.01,1.69l-1.16-.34c.16-.57.41-1.09.76-1.55.35-.46.81-.83,1.38-1.1.57-.27,1.26-.41,2.06-.41,1.23,0,2.18.32,2.85.96s1.01,1.53,1.01,2.68v4.72c0,.4.19.6.56.6h.94v1.04h-1.28c-.41,0-.74-.12-.98-.37-.24-.25-.36-.58-.36-1.01v-.14h-.2c-.17.29-.4.58-.67.86-.27.28-.63.51-1.07.68-.44.17-.99.26-1.66.26ZM37.64,399.2c1.03,0,1.86-.31,2.49-.93.63-.62.95-1.5.95-2.63v-.24h-3.54c-.69,0-1.27.15-1.73.45-.46.3-.69.76-.69,1.39s.24,1.11.71,1.45c.47.34,1.08.51,1.81.51Z"/>
    <path class="cls-4" d="M46.06,400v-9.72h1.16v1.22h.24c.19-.44.46-.76.83-.96.37-.2.88-.3,1.53-.3h1.14v1.12h-1.28c-.73,0-1.32.21-1.76.62-.44.41-.66,1.06-.66,1.94v6.08h-1.2Z"/>
    <path class="cls-4" d="M57.28,400.28c-.87,0-1.65-.2-2.36-.61-.71-.41-1.27-.99-1.69-1.74-.42-.75-.63-1.64-.63-2.67v-.24c0-1.03.21-1.92.62-2.67.41-.75.98-1.33,1.69-1.74.71-.41,1.5-.61,2.37-.61.72,0,1.33.1,1.82.29.49.19.9.44,1.21.74s.56.62.73.95h.24v-5.98h1.2v14h-1.16v-1.78h-.24c-.28.53-.72,1.01-1.31,1.43-.59.42-1.42.63-2.49.63ZM57.56,399.2c1.11,0,2-.35,2.69-1.06.69-.71,1.03-1.68,1.03-2.92v-.16c0-1.24-.34-2.21-1.03-2.92-.69-.71-1.58-1.06-2.69-1.06s-1.99.35-2.68,1.06c-.69.71-1.04,1.68-1.04,2.92v.16c0,1.24.35,2.21,1.04,2.92.69.71,1.59,1.06,2.68,1.06Z"/>
    <path class="cls-4" d="M71.88,400.28c-1.73,0-3.11-.48-4.12-1.45-1.01-.97-1.52-2.35-1.52-4.15v-3.36c0-1.8.51-3.18,1.52-4.15,1.01-.97,2.39-1.45,4.12-1.45s3.05.47,3.99,1.41c.94.94,1.41,2.23,1.41,3.87v.12h-2.6v-.2c0-.83-.23-1.51-.69-2.04s-1.16-.8-2.11-.8-1.67.29-2.2.86-.8,1.35-.8,2.34v3.44c0,.97.27,1.75.8,2.33s1.27.87,2.2.87,1.65-.27,2.11-.81.69-1.22.69-2.03v-.36h2.6v.28c0,1.64-.47,2.93-1.41,3.87-.94.94-2.27,1.41-3.99,1.41Z"/>
    <path class="cls-4" d="M84.24,400.28c-.99,0-1.87-.2-2.66-.6-.79-.4-1.41-.98-1.86-1.74-.45-.76-.68-1.67-.68-2.74v-.32c0-1.07.23-1.98.68-2.74.45-.76,1.07-1.34,1.86-1.74.79-.4,1.67-.6,2.66-.6s1.87.2,2.66.6c.79.4,1.41.98,1.86,1.74.45.76.68,1.67.68,2.74v.32c0,1.07-.23,1.98-.68,2.74-.45.76-1.07,1.34-1.86,1.74-.79.4-1.67.6-2.66.6ZM84.24,398.04c.77,0,1.41-.25,1.92-.75.51-.5.76-1.22.76-2.15v-.2c0-.93-.25-1.65-.75-2.15s-1.14-.75-1.93-.75-1.41.25-1.92.75c-.51.5-.76,1.22-.76,2.15v.2c0,.93.25,1.65.76,2.15.51.5,1.15.75,1.92.75Z"/>
    <path class="cls-4" d="M95.54,400.16c-.77,0-1.45-.18-2.03-.53-.58-.35-1.03-.84-1.35-1.47-.32-.63-.48-1.35-.48-2.16v-5.92h2.52v5.72c0,.75.18,1.31.55,1.68.37.37.89.56,1.57.56.77,0,1.37-.26,1.8-.77.43-.51.64-1.23.64-2.15v-5.04h2.52v9.92h-2.48v-1.3h-.36c-.16.33-.46.66-.9.98-.44.32-1.11.48-2,.48Z"/>
    <path class="cls-4" d="M104.08,400v-9.92h2.48v1.3h.36c.16-.35.46-.68.9-.99.44-.31,1.11-.47,2-.47.77,0,1.45.18,2.03.53s1.03.84,1.35,1.46.48,1.34.48,2.17v5.92h-2.52v-5.72c0-.75-.18-1.31-.55-1.68-.37-.37-.89-.56-1.57-.56-.77,0-1.37.26-1.8.77-.43.51-.64,1.23-.64,2.15v5.04h-2.52Z"/>
    <path class="cls-4" d="M119.92,400c-.65,0-1.18-.2-1.59-.61-.41-.41-.61-.95-.61-1.63v-5.6h-2.48v-2.08h2.48v-3.08h2.52v3.08h2.72v2.08h-2.72v5.16c0,.4.19.6.56.6h1.92v2.08h-2.8Z"/>
    <path class="cls-4" d="M129.4,400.28c-.99,0-1.86-.21-2.61-.63-.75-.42-1.34-1.01-1.76-1.78s-.63-1.67-.63-2.71v-.24c0-1.04.21-1.94.62-2.71.41-.77.99-1.36,1.74-1.78.75-.42,1.61-.63,2.6-.63s1.82.22,2.54.65,1.28,1.03,1.68,1.8c.4.77.6,1.66.6,2.67v.86h-7.22c.03.68.28,1.23.76,1.66.48.43,1.07.64,1.76.64s1.23-.15,1.56-.46c.33-.31.59-.65.76-1.02l2.06,1.08c-.19.35-.46.72-.81,1.13-.35.41-.82.75-1.41,1.04-.59.29-1.33.43-2.24.43ZM126.98,393.9h4.64c-.05-.57-.28-1.03-.69-1.38-.41-.35-.94-.52-1.59-.52s-1.22.17-1.62.52c-.4.35-.65.81-.74,1.38Z"/>
    <path class="cls-4" d="M136.42,400v-9.92h2.48v1.12h.36c.15-.4.39-.69.73-.88.34-.19.74-.28,1.19-.28h1.2v2.24h-1.24c-.64,0-1.17.17-1.58.51s-.62.86-.62,1.57v5.64h-2.52Z"/>
    <path class="cls-4" d="M148.22,400.28c-1.29,0-2.35-.28-3.18-.84-.83-.56-1.33-1.36-1.5-2.4l2.32-.6c.09.47.25.83.47,1.1.22.27.49.46.82.57.33.11.68.17,1.07.17.59,0,1.02-.1,1.3-.31.28-.21.42-.46.42-.77s-.13-.54-.4-.71c-.27-.17-.69-.3-1.28-.41l-.56-.1c-.69-.13-1.33-.32-1.9-.55-.57-.23-1.03-.56-1.38-.97-.35-.41-.52-.95-.52-1.6,0-.99.36-1.74,1.08-2.27.72-.53,1.67-.79,2.84-.79,1.11,0,2.03.25,2.76.74.73.49,1.21,1.14,1.44,1.94l-2.34.72c-.11-.51-.32-.87-.65-1.08-.33-.21-.73-.32-1.21-.32s-.85.08-1.1.25c-.25.17-.38.4-.38.69,0,.32.13.56.4.71.27.15.63.27,1.08.35l.56.1c.75.13,1.42.31,2.03.53.61.22,1.09.53,1.44.94.35.41.53.96.53,1.65,0,1.04-.38,1.84-1.13,2.41-.75.57-1.76.85-3.03.85Z"/>
  </g>
  <path class="cls-3" d="M112.11,87.1c-.32-.67-.66-1.33-1-1.98"/>
  <path class="cls-3" d="M112.11,176.66c-.32.66-.65,1.32-1,1.97"/>
  <path class="cls-3" d="M22.84,49.89v-30.1h5.68v11.95h.77l9.76-11.95h7.27l-12.56,14.83,12.99,15.26h-7.48l-9.98-12.21h-.77v12.21h-5.68Z"/>
  <path class="cls-4" d="M279.23,369.9v30.1h-5.68v-11.95h-.77l-9.76,11.95h-7.27l12.56-14.83-12.99-15.26h7.48l9.98,12.21h.77v-12.21h5.68Z"/>
  <use width="19.15" height="29.65" transform="translate(224.17 370.25)" xlink:href="#Diamonds_Light_"/>
  <use width="19.15" height="29.65" transform="translate(58.75 20.15)" xlink:href="#Diamonds"/>
  <path class="cls-3" d="M61.8,93.81c2.41,5.27,3.91,10.55,5.26,15.82,1.37,5.19,2.78,10.45,2.74,15.82.12,15.82.13,31.64-.2,47.45-.28,15.83-.75,31.64-1.8,47.45,0,0-12,0-12,0-1.04-15.81-1.51-31.62-1.8-47.45-.33-15.82-.32-31.64-.2-47.45-.04-5.37,1.37-10.63,2.74-15.82,1.34-5.27,2.85-10.55,5.26-15.82h0Z"/>
  <line class="cls-1" x1="87.61" y1="229.46" x2="36" y2="229.46"/>
  <line class="cls-2" x1="61.8" y1="238.52" x2="61.8" y2="276.21"/>
</svg>