<?xml version="1.0" encoding="UTF-8"?>
<svg id="Layer_1" xmlns="http://www.w3.org/2000/svg" xmlns:xlink="http://www.w3.org/1999/xlink" version="1.1" viewBox="0 0 300 420">
  <!-- Generator: Adobe Illustrator 29.8.4, SVG Export Plug-In . SVG Version: 2.1.1 Build 6)  -->
  <defs>
    <style>
      .st0, .st1 {
        fill: none;
      }

      .st1 {
        stroke: #ce2029;
        stroke-miterlimit: 10;
        stroke-width: 10px;
      }

      .st2 {
        fill: #ce2029;
      }

      .st3 {
        clip-path: url(#clippath-1);
      }

      .st4 {
        fill: #fbfffe;
      }

      .st5 {
        clip-path: url(#clippath);
      }
    </style>
    <symbol id="Diamonds" viewBox="0 0 19.17 29.64">
      <path class="st2" d="M19.16,14.82c-2.24,4.96-6.37,11.35-9.58,14.82-3.2-3.47-7.33-9.87-9.58-14.82C2.25,9.87,6.38,3.47,9.59,0c3.2,3.47,7.33,9.87,9.58,14.82h-.01Z"/>
    </symbol>
    <symbol id="Diamonds_Light_" viewBox="0 0 19.17 29.64">
      <path class="st4" d="M19.16,14.82c-2.24,4.96-6.37,11.35-9.58,14.82-3.2-3.47-7.33-9.87-9.58-14.82C2.25,9.87,6.38,3.47,9.59,0c3.2,3.47,7.33,9.87,9.58,14.82h-.01Z"/>
    </symbol>
    <clipPath id="clippath">
      <rect class="st0" x="224.45" y="370.25" width="19.15" height="29.65"/>
    </clipPath>
    <clipPath id="clippath-1">
      <rect class="st0" x="58.92" y="20.15" width="19.15" height="29.65"/>
    </clipPath>
  </defs>
  <rect class="st4" width="300" height="420"/>
  <path class="st2" d="M211.59,327.07c-28.16,0-50.56-7.73-67.2-23.2-16.64-15.46-24.96-37.6-24.96-66.4v-53.76c0-28.8,8.32-50.93,24.96-66.4,16.64-15.47,39.04-23.2,67.2-23.2s50.56,7.73,67.2,23.2c16.64,15.47,24.96,37.6,24.96,66.4v53.76c0,28.8-8.32,50.94-24.96,66.4-16.64,15.47-39.04,23.2-67.2,23.2h0ZM211.59,289.31c15.79,0,28.05-4.58,36.8-13.76,8.74-9.17,13.12-21.44,13.12-36.8v-56.32c0-15.36-4.38-27.62-13.12-36.8-8.75-9.17-21.02-13.76-36.8-13.76s-27.79,4.59-36.64,13.76-13.28,21.44-13.28,36.8v56.32c0,15.36,4.43,27.63,13.28,36.8,8.85,9.17,21.07,13.76,36.64,13.76h0Z"/>
  <path class="st2" d="M0,320h300v100H0v-100h0Z"/>
  <g>
    <path class="st4" d="M26.68,400.28c-1.64,0-2.95-.48-3.93-1.45s-1.47-2.38-1.47-4.25v-3.16c0-1.87.49-3.28,1.47-4.25s2.29-1.45,3.93-1.45,2.87.46,3.73,1.37,1.29,2.16,1.29,3.73v.1h-1.28v-.14c0-1.15-.3-2.08-.91-2.81s-1.55-1.09-2.83-1.09-2.3.39-3.03,1.18c-.73.79-1.09,1.89-1.09,3.32v3.24c0,1.43.36,2.53,1.09,3.32s1.74,1.18,3.03,1.18,2.22-.36,2.83-1.09.91-1.66.91-2.81v-.3h1.28v.26c0,1.57-.43,2.82-1.29,3.73s-2.1,1.37-3.73,1.37Z"/>
    <path class="st4" d="M37.56,400.28c-.68,0-1.3-.12-1.85-.35s-.99-.58-1.31-1.03-.48-1-.48-1.64.16-1.19.48-1.62.75-.75,1.3-.96,1.15-.32,1.82-.32h3.56v-.78c0-.79-.23-1.4-.68-1.84s-1.11-.66-1.98-.66-1.53.21-2.03.63-.84.98-1.01,1.69l-1.16-.34c.16-.57.41-1.09.76-1.55s.81-.83,1.38-1.1c.57-.27,1.26-.41,2.06-.41,1.23,0,2.18.32,2.85.96s1.01,1.53,1.01,2.68v4.72c0,.4.19.6.56.6h.94v1.04h-1.28c-.41,0-.74-.12-.98-.37-.24-.25-.36-.58-.36-1.01v-.14h-.2c-.17.29-.4.58-.67.86-.27.28-.63.51-1.07.68-.44.17-.99.26-1.66.26h0ZM37.64,399.2c1.03,0,1.86-.31,2.49-.93s.95-1.5.95-2.63v-.24h-3.54c-.69,0-1.27.15-1.73.45-.46.3-.69.76-.69,1.39s.24,1.11.71,1.45c.47.34,1.08.51,1.81.51h0Z"/>
    <path class="st4" d="M46.06,400v-9.72h1.16v1.22h.24c.19-.44.46-.76.83-.96.37-.2.88-.3,1.53-.3h1.14v1.12h-1.28c-.73,0-1.32.21-1.76.62s-.66,1.06-.66,1.94v6.08h-1.2Z"/>
    <path class="st4" d="M57.28,400.28c-.87,0-1.65-.2-2.36-.61-.71-.41-1.27-.99-1.69-1.74s-.63-1.64-.63-2.67v-.24c0-1.03.21-1.92.62-2.67s.98-1.33,1.69-1.74,1.5-.61,2.37-.61c.72,0,1.33.1,1.82.29.49.19.9.44,1.21.74s.56.62.73.95h.24v-5.98h1.2v14h-1.16v-1.78h-.24c-.28.53-.72,1.01-1.31,1.43-.59.42-1.42.63-2.49.63h0ZM57.56,399.2c1.11,0,2-.35,2.69-1.06s1.03-1.68,1.03-2.92v-.16c0-1.24-.34-2.21-1.03-2.92-.69-.71-1.58-1.06-2.69-1.06s-1.99.35-2.68,1.06-1.04,1.68-1.04,2.92v.16c0,1.24.35,2.21,1.04,2.92.69.71,1.59,1.06,2.68,1.06Z"/>
    <path class="st4" d="M71.88,400.28c-1.73,0-3.11-.48-4.12-1.45s-1.52-2.35-1.52-4.15v-3.36c0-1.8.51-3.18,1.52-4.15,1.01-.97,2.39-1.45,4.12-1.45s3.05.47,3.99,1.41c.94.94,1.41,2.23,1.41,3.87v.12h-2.6v-.2c0-.83-.23-1.51-.69-2.04s-1.16-.8-2.11-.8-1.67.29-2.2.86-.8,1.35-.8,2.34v3.44c0,.97.27,1.75.8,2.33s1.27.87,2.2.87,1.65-.27,2.11-.81.69-1.22.69-2.03v-.36h2.6v.28c0,1.64-.47,2.93-1.41,3.87s-2.27,1.41-3.99,1.41h0Z"/>
    <path class="st4" d="M84.24,400.28c-.99,0-1.87-.2-2.66-.6s-1.41-.98-1.86-1.74c-.45-.76-.68-1.67-.68-2.74v-.32c0-1.07.23-1.98.68-2.74.45-.76,1.07-1.34,1.86-1.74s1.67-.6,2.66-.6,1.87.2,2.66.6,1.41.98,1.86,1.74c.45.76.68,1.67.68,2.74v.32c0,1.07-.23,1.98-.68,2.74-.45.76-1.07,1.34-1.86,1.74s-1.67.6-2.66.6ZM84.24,398.04c.77,0,1.41-.25,1.92-.75.51-.5.76-1.22.76-2.15v-.2c0-.93-.25-1.65-.75-2.15s-1.14-.75-1.93-.75-1.41.25-1.92.75c-.51.5-.76,1.22-.76,2.15v.2c0,.93.25,1.65.76,2.15s1.15.75,1.92.75Z"/>
    <path class="st4" d="M95.54,400.16c-.77,0-1.45-.18-2.03-.53s-1.03-.84-1.35-1.47-.48-1.35-.48-2.16v-5.92h2.52v5.72c0,.75.18,1.31.55,1.68s.89.56,1.57.56c.77,0,1.37-.26,1.8-.77.43-.51.64-1.23.64-2.15v-5.04h2.52v9.92h-2.48v-1.3h-.36c-.16.33-.46.66-.9.98s-1.11.48-2,.48h0Z"/>
    <path class="st4" d="M104.08,400v-9.92h2.48v1.3h.36c.16-.35.46-.68.9-.99s1.11-.47,2-.47c.77,0,1.45.18,2.03.53s1.03.84,1.35,1.46.48,1.34.48,2.17v5.92h-2.52v-5.72c0-.75-.18-1.31-.55-1.68s-.89-.56-1.57-.56c-.77,0-1.37.26-1.8.77-.43.51-.64,1.23-.64,2.15v5.04h-2.52Z"/>
    <path class="st4" d="M119.92,400c-.65,0-1.18-.2-1.59-.61-.41-.41-.61-.95-.61-1.63v-5.6h-2.48v-2.08h2.48v-3.08h2.52v3.08h2.72v2.08h-2.72v5.16c0,.4.19.6.56.6h1.92v2.08s-2.8,0-2.8,0Z"/>
    <path class="st4" d="M129.4,400.28c-.99,0-1.86-.21-2.61-.63s-1.34-1.01-1.76-1.78-.63-1.67-.63-2.71v-.24c0-1.04.21-1.94.62-2.71s.99-1.36,1.74-1.78,1.61-.63,2.6-.63,1.82.22,2.54.65,1.28,1.03,1.68,1.8.6,1.66.6,2.67v.86h-7.22c.03.68.28,1.23.76,1.66s1.07.64,1.76.64,1.23-.15,1.56-.46.59-.65.76-1.02l2.06,1.08c-.19.35-.46.72-.81,1.13-.35.41-.82.75-1.41,1.04s-1.33.43-2.24.43h0ZM126.98,393.9h4.64c-.05-.57-.28-1.03-.69-1.38s-.94-.52-1.59-.52-1.22.17-1.62.52c-.4.35-.65.81-.74,1.38Z"/>
    <path class="st4" d="M136.42,400v-9.92h2.48v1.12h.36c.15-.4.39-.69.73-.88s.74-.28,1.19-.28h1.2v2.24h-1.24c-.64,0-1.17.17-1.58.51s-.62.86-.62,1.57v5.64h-2.52,0Z"/>
    <path class="st4" d="M148.22,400.28c-1.29,0-2.35-.28-3.18-.84-.83-.56-1.33-1.36-1.5-2.4l2.32-.6c.09.47.25.83.47,1.1.22.27.49.46.82.57.33.11.68.17,1.07.17.59,0,1.02-.1,1.3-.31s.42-.46.42-.77-.13-.54-.4-.71c-.27-.17-.69-.3-1.28-.41l-.56-.1c-.69-.13-1.33-.32-1.9-.55-.57-.23-1.03-.56-1.38-.97s-.52-.95-.52-1.6c0-.99.36-1.74,1.08-2.27s1.67-.79,2.84-.79,2.03.25,2.76.74,1.21,1.14,1.44,1.94l-2.34.72c-.11-.51-.32-.87-.65-1.08-.33-.21-.73-.32-1.21-.32s-.85.08-1.1.25-.38.4-.38.69c0,.32.13.56.4.71.27.15.63.27,1.08.35l.56.1c.75.13,1.42.31,2.03.53s1.09.53,1.44.94.53.96.53,1.65c0,1.04-.38,1.84-1.13,2.41s-1.76.85-3.03.85h0Z"/>
  </g>
  <path class="st2" d="M112.11,87.1c-.32-.67-.66-1.33-1-1.98"/>
  <path class="st2" d="M112.11,176.66c-.32.66-.65,1.32-1,1.97"/>
  <rect class="st2" x="236.86" y="241.47" width="38.41" height="98.67" transform="translate(-119.18 194.22) rotate(-34.2)"/>
  <path class="st2" d="M34.53,50.5c-3.78,0-6.79-1.04-9.03-3.12-2.24-2.08-3.35-5.05-3.35-8.92v-7.22c0-3.87,1.12-6.84,3.35-8.92,2.24-2.08,5.25-3.12,9.03-3.12s6.79,1.04,9.03,3.12c2.24,2.08,3.35,5.05,3.35,8.92v7.22c0,3.87-1.12,6.84-3.35,8.92-2.24,2.08-5.25,3.12-9.03,3.12ZM34.53,45.42c2.12,0,3.77-.62,4.95-1.85,1.17-1.23,1.76-2.88,1.76-4.94v-7.57c0-2.06-.59-3.71-1.76-4.95-1.18-1.23-2.82-1.85-4.95-1.85s-3.73.62-4.92,1.85-1.78,2.88-1.78,4.95v7.57c0,2.06.59,3.71,1.78,4.94s2.83,1.85,4.92,1.85Z"/>
  <rect class="st2" x="37.88" y="38.4" width="5.14" height="13.6" transform="translate(-18.73 31.91) rotate(-35.52)"/>
  <path class="st4" d="M267.54,369.3c3.78,0,6.79,1.04,9.03,3.12s3.35,5.05,3.35,8.92v7.22c0,3.87-1.12,6.84-3.35,8.92-2.24,2.08-5.25,3.12-9.03,3.12s-6.79-1.04-9.03-3.12-3.35-5.05-3.35-8.92v-7.22c0-3.87,1.12-6.84,3.35-8.92,2.24-2.08,5.25-3.12,9.03-3.12ZM267.54,374.37c-2.12,0-3.77.62-4.95,1.85-1.18,1.23-1.76,2.88-1.76,4.94v7.57c0,2.06.59,3.71,1.76,4.95,1.18,1.23,2.82,1.85,4.95,1.85s3.73-.62,4.92-1.85,1.78-2.88,1.78-4.95v-7.57c0-2.06-.59-3.71-1.78-4.94s-2.83-1.85-4.92-1.85Z"/>
  <rect class="st4" x="259.03" y="367.79" width="5.14" height="13.6" transform="translate(-168.95 221.69) rotate(-35.52)"/>
  <g class="st5">
    <use width="19.17" height="29.64" transform="translate(224.44 370.25)" xlink:href="#Diamonds_Light_"/>
  </g>
  <g class="st3">
    <use width="19.17" height="29.64" transform="translate(58.91 20.15)" xlink:href="#Diamonds"/>
  </g>
  <line class="st1" x1="61.8" y1="161.12" x2="61.8" y2="276.21"/>
  <polygon class="st2" points="61.81 93.66 50.57 113.12 73.05 113.12 61.81 93.66"/>
  <polygon class="st2" points="61.81 180.58 50.57 161.12 73.05 161.12 61.81 180.58"/>
  <circle class="st2" cx="61.8" cy="137.12" r="18"/>
</svg>